<?xml version="1.0" standalone="no"?>
<!DOCTYPE svg PUBLIC "-//W3C//DTD SVG 20010904//EN"
 "http://www.w3.org/TR/2001/REC-SVG-20010904/DTD/svg10.dtd">
<svg version="1.0" xmlns="http://www.w3.org/2000/svg"
 width="1024.000000pt" height="724.000000pt" viewBox="0 0 1024.000000 724.000000"
 preserveAspectRatio="xMidYMid meet">

<g transform="translate(0.000000,724.000000) scale(0.100000,-0.100000)"
fill="#000000" stroke="none">
<path d="M0 4942 l0 -2297 83 7 c45 4 293 12 552 18 259 6 519 13 579 16 87 5
107 4 101 -6 -7 -11 20 -12 136 -5 220 13 2759 8 2759 -5 0 -5 -15 -29 -34
-53 l-35 -45 952 -4 c524 -2 956 0 960 3 5 4 -5 22 -21 40 -62 73 -81 69 291
69 183 1 746 1 1252 2 1115 2 2278 -9 2412 -22 54 -5 133 -10 176 -10 l77 0 0
2295 0 2295 -1122 0 -1123 -1 27 -22 c14 -12 45 -35 68 -52 23 -16 99 -89 169
-160 128 -131 191 -219 226 -315 9 -25 21 -53 25 -62 12 -22 34 -257 31 -331
-2 -65 9 -82 54 -82 27 0 30 -3 29 -30 -1 -37 9 -44 61 -46 25 -1 31 -3 15 -6
-57 -9 -67 -14 -78 -38 -6 -14 -20 -25 -29 -26 -10 0 -3 -5 16 -11 26 -7 31
-12 20 -19 -8 -5 -22 -9 -32 -9 -15 0 -16 -2 -5 -13 7 -7 25 -18 41 -24 34
-16 34 -30 1 -101 -34 -73 -46 -132 -31 -151 9 -12 9 -13 0 -7 -7 4 -13 2 -13
-3 0 -6 5 -11 11 -11 5 0 7 -4 4 -10 -3 -5 1 -10 9 -10 9 0 16 -4 16 -10 0 -5
-9 -10 -21 -10 -36 0 -9 -20 29 -21 l37 -1 -43 -10 c-50 -11 -55 -25 -9 -31
28 -3 27 -4 -10 -5 -60 -3 -65 -22 -6 -24 42 -1 39 -2 -22 -8 -38 -4 -56 -7
-40 -8 17 -1 37 -7 45 -12 12 -8 8 -10 -15 -11 -20 -2 -14 -4 20 -9 46 -6 47
-7 13 -8 -39 -2 -51 -17 -20 -25 9 -3 -6 -5 -35 -6 -54 -1 -80 -16 -41 -24 13
-3 -6 -4 -42 -3 l-65 1 -1 115 c-1 95 2 122 18 157 14 31 18 54 13 82 -4 27
-1 50 11 77 27 60 28 60 9 38 -18 -21 -18 -21 -38 -1 -14 14 -29 18 -63 15
-43 -3 -44 -2 -46 27 0 16 0 37 0 45 1 8 0 34 -4 58 l-5 42 -61 0 c-47 0 -63
-4 -76 -20 -11 -13 -43 -24 -92 -34 -71 -13 -73 -14 -28 -15 36 -1 46 -4 42
-15 -3 -8 2 -16 13 -19 13 -3 11 -5 -7 -6 -53 -3 -70 -33 -37 -63 10 -9 17
-22 16 -30 -4 -19 20 -60 32 -53 5 4 24 3 42 -1 30 -6 31 -7 9 -15 -12 -5 -29
-6 -37 -3 -8 4 -15 1 -15 -5 0 -6 3 -10 8 -10 22 4 31 -3 25 -18 -5 -12 -2
-15 9 -10 9 3 23 -2 34 -14 10 -11 12 -19 6 -19 -7 0 -12 5 -12 10 0 18 -18
10 -35 -16 -17 -26 -17 -27 4 -21 14 3 21 0 21 -9 0 -18 -24 -18 -39 0 -9 11
-9 20 -2 35 9 17 8 20 -8 18 -15 -1 -20 -11 -24 -49 -4 -27 -10 -55 -15 -64
-8 -14 -10 -14 -25 0 -8 9 -20 16 -26 16 -6 0 -8 8 -5 18 5 13 4 14 -4 3 -11
-16 -5 -41 10 -41 5 0 17 -7 25 -16 15 -15 17 -14 29 8 12 20 13 20 10 3 -2
-11 -7 -28 -11 -38 -4 -11 -3 -23 3 -29 6 -6 8 -17 5 -26 -5 -11 -3 -13 8 -7
12 8 12 6 1 -8 -8 -9 -17 -16 -20 -15 -16 4 -51 -14 -56 -29 -5 -13 -9 -12
-26 7 -14 16 -20 19 -20 8 0 -20 32 -48 56 -48 10 0 26 -5 34 -10 11 -7 -4
-10 -50 -10 -56 0 -67 3 -78 21 -8 12 -9 18 -3 14 15 -8 14 -4 -5 34 -17 33
-32 44 -77 55 -18 4 -26 3 -23 -3 4 -5 2 -12 -3 -15 -5 -3 -12 -18 -16 -33 -8
-35 -53 -83 -77 -83 -10 0 -18 5 -18 10 0 6 8 10 17 10 23 0 53 29 46 46 -3 9
-21 14 -47 15 -40 1 -40 2 12 9 65 10 79 20 28 20 -33 0 -38 3 -33 20 5 19 0
20 -116 21 -143 1 -190 11 -107 24 l55 9 -91 7 c-192 15 -112 39 128 39 54 0
98 4 98 8 0 11 -18 13 -99 12 -59 -1 -81 11 -28 15 27 2 30 29 2 31 -11 0 -31
2 -45 3 -23 2 -24 3 -5 11 17 7 16 9 -10 10 -16 2 -33 2 -37 1 -13 -2 -9 17 5
22 6 3 -28 7 -78 8 -49 1 -97 3 -105 5 -8 1 -35 3 -60 4 l-45 2 65 14 65 13
-58 -3 c-32 -1 -53 0 -47 4 7 5 9 20 5 44 -7 32 -5 36 14 36 13 0 19 4 16 10
-4 6 -8 85 -10 177 -2 109 -7 169 -14 171 -14 5 -14 42 0 42 8 0 8 4 2 13 -19
23 -21 82 -8 177 30 215 125 381 341 595 50 49 101 98 115 107 23 16 -44 17
-1206 17 l-1230 1 50 -32 c78 -48 268 -231 356 -342 45 -56 89 -111 99 -122
39 -47 100 -162 94 -178 -3 -9 -2 -16 3 -16 9 0 23 -29 69 -138 8 -18 14 -40
14 -50 0 -9 9 -39 19 -67 32 -85 41 -120 41 -161 0 -42 54 -143 78 -144 27 0
10 -20 -18 -20 -16 0 -30 -5 -30 -11 0 -5 8 -9 18 -8 9 1 38 -1 64 -4 27 -4
68 -10 93 -13 73 -9 52 -19 -41 -19 -77 0 -88 -2 -104 -23 -12 -14 -34 -24
-64 -28 -60 -9 -59 -24 2 -26 l47 -1 -45 -6 -45 -7 34 -8 35 -8 -35 -19 c-18
-10 -27 -18 -19 -19 13 0 13 -1 0 -10 -11 -7 5 -10 52 -10 l67 0 -3 -72 c-2
-40 -4 -91 -5 -113 -2 -50 -37 -94 -82 -105 -20 -5 95 -8 271 -9 l305 -1 -3
185 -3 185 103 -1 c82 0 97 -3 75 -11 -22 -8 -25 -13 -16 -24 7 -9 10 -61 7
-164 -3 -128 -1 -150 12 -152 8 0 -7 -4 -35 -8 -38 -5 -24 -7 60 -7 61 -1 99
2 85 6 -21 6 -22 8 -7 14 13 5 16 14 12 34 -13 72 -17 250 -6 271 12 23 10 25
-59 35 -14 3 5 5 42 6 37 0 70 -3 73 -9 8 -13 7 -322 -1 -344 -6 -17 37 -18
812 -15 1065 3 1284 1 1284 -10 0 -8 -315 -15 -985 -21 -63 -1 -91 -4 -75 -9
40 -12 -45 -20 -296 -27 -162 -5 -223 -4 -228 4 -5 8 4 12 26 12 18 0 40 5 48
10 12 8 8 10 -15 10 -59 -1 -322 0 -450 2 -205 3 -1061 -1 -1155 -6 -47 -2
-106 -5 -132 -5 -65 -1 -61 -17 4 -20 28 -1 54 -4 57 -7 3 -3 -258 -5 -579 -5
-1512 0 -3918 -9 -3947 -14 l-33 -6 0 46 0 45 373 1 c204 0 381 4 392 9 15 6
4 9 -40 11 -52 2 -54 3 -17 6 36 4 42 7 42 28 0 12 7 25 15 29 8 3 15 13 15
22 0 13 -3 14 -13 5 -11 -9 -13 -5 -11 17 7 52 10 67 17 79 7 12 -10 20 -54
26 -8 2 -20 6 -26 10 -8 5 -13 3 -13 -3 0 -7 -5 -8 -12 -3 -7 4 -31 8 -54 9
-23 0 -46 4 -52 8 -6 3 -13 0 -16 -6 -5 -11 -7 -11 -12 0 -3 6 -11 9 -17 5
-11 -7 -38 -12 -87 -17 -23 -2 -25 -7 -25 -48 0 -25 -3 -49 -7 -54 -5 -4 -8
17 -8 47 0 36 -3 49 -9 40 -5 -8 -7 -29 -4 -48 4 -21 2 -33 -6 -33 -7 0 -11
20 -11 52 0 50 0 51 -20 33 -17 -15 -20 -16 -20 -3 0 11 -14 18 -47 22 -76 11
-86 15 -72 32 6 8 18 14 25 14 8 0 14 5 14 11 0 5 5 7 10 4 6 -4 10 8 11 27
l1 33 8 -30 8 -30 2 30 2 30 8 -30 8 -30 1 30 c1 21 4 26 10 17 7 -11 9 -11
14 2 5 13 -3 16 -51 17 -31 1 -47 4 -36 6 19 4 21 9 17 42 l-5 38 47 6 c26 4
94 7 151 7 92 0 104 2 114 19 15 29 13 31 -23 31 -21 0 -36 -7 -45 -20 -9 -15
-23 -20 -58 -20 -42 0 -46 2 -60 36 -8 19 -14 59 -14 87 2 85 21 231 33 252 6
11 12 34 14 50 4 52 26 140 36 146 5 4 16 39 23 78 19 97 110 301 135 301 5 0
9 6 9 13 0 7 27 42 61 77 33 36 88 98 122 139 36 43 82 85 112 102 l50 29
-1097 0 -1098 0 0 -2298z m6870 1472 c0 -8 -4 -14 -10 -14 -5 0 -10 4 -10 9 0
5 -3 18 -7 28 -6 16 -5 16 10 4 9 -7 17 -20 17 -27z m-38 -30 c-5 -9 -7 -26
-5 -38 4 -18 2 -17 -9 4 -12 22 -12 27 1 37 21 17 24 16 13 -3z m-372 -15 c0
-6 -4 -7 -10 -4 -5 3 -10 11 -10 16 0 6 5 7 10 4 6 -3 10 -11 10 -16z m600 -1
c0 -13 -23 -5 -28 10 -2 7 2 10 12 6 9 -3 16 -11 16 -16z m0 -29 c0 -12 -52
-70 -57 -65 -3 3 4 17 16 32 12 15 19 29 16 32 -3 3 -12 -3 -21 -14 -15 -18
-15 -18 -5 3 10 20 51 29 51 12z m-380 -15 c0 -8 -4 -12 -10 -9 -5 3 -10 10
-10 16 0 5 5 9 10 9 6 0 10 -7 10 -16z m128 -9 c-3 -3 -9 2 -12 12 -6 14 -5
15 5 6 7 -7 10 -15 7 -18z m-158 -20 c0 -5 -5 -3 -10 5 -5 8 -10 20 -10 25 0
6 5 3 10 -5 5 -8 10 -19 10 -25z m-156 9 c9 -24 7 -34 -8 -34 -16 0 -29 27
-20 41 8 14 21 11 28 -7z m476 -5 c0 -11 4 -18 9 -14 5 3 13 -4 16 -15 6 -18
9 -19 23 -8 13 9 12 7 -2 -9 -10 -12 -16 -29 -13 -37 3 -8 -2 -21 -12 -30 -24
-22 -38 -20 -19 2 17 19 31 65 17 56 -5 -3 -9 -10 -9 -16 0 -5 -9 -21 -20 -35
-21 -27 -27 -63 -10 -63 6 0 10 6 10 14 0 15 24 28 34 19 10 -10 7 -23 -5 -23
-15 0 -39 -26 -31 -35 4 -4 2 -6 -3 -5 -29 6 -45 -2 -46 -22 0 -22 -1 -22 -10
-3 -8 18 -9 17 -6 -6 3 -20 -3 -29 -26 -43 -18 -10 -26 -11 -20 -4 6 7 16 30
22 50 9 25 17 35 27 31 8 -3 14 0 14 6 0 6 -4 11 -10 11 -5 0 -10 5 -10 12 0
6 7 4 18 -5 10 -10 22 -14 26 -10 3 4 -6 17 -21 29 l-27 21 24 13 c14 7 30 18
36 25 15 14 29 59 17 52 -5 -3 -10 10 -10 29 -1 19 3 34 8 34 5 0 9 -9 9 -21z
m-175 2 c3 -5 0 -13 -6 -17 -7 -4 -9 -3 -5 4 3 5 0 13 -6 15 -9 4 -10 6 -1 6
6 1 14 -3 18 -8z m-27 -35 c-1 -14 -5 -23 -9 -20 -4 2 -13 -9 -21 -26 -13 -30
-28 -35 -36 -12 -2 7 2 11 8 10 7 -2 21 14 32 35 23 43 29 46 26 13z m162 8
c0 -5 -28 -48 -46 -73 -7 -8 -54 -9 -59 -1 -3 5 6 7 19 4 18 -3 30 3 45 22 12
15 21 33 21 40 0 8 5 14 10 14 6 0 10 -3 10 -6z m-331 -57 c9 -3 5 -5 -9 -6
-22 -1 -25 4 -26 32 l-2 32 11 -27 c6 -15 18 -29 26 -31z m-72 28 c7 0 13 -4
12 -10 0 -5 -8 -9 -17 -7 -15 2 -15 1 1 -8 9 -6 17 -15 17 -21 0 -5 -16 3 -35
18 -22 18 -30 30 -23 35 7 3 17 4 23 0 5 -4 16 -7 22 -7z m148 -5 c-4 -6 -1
-17 5 -25 7 -9 8 -15 2 -15 -12 0 -24 29 -16 41 3 5 7 9 10 9 3 0 2 -5 -1 -10z
m-253 -56 c-3 -18 -1 -25 6 -20 6 3 24 -7 40 -24 36 -35 60 -38 70 -9 7 19 9
19 21 5 11 -13 11 -17 -3 -22 -9 -3 -13 -11 -9 -17 3 -6 1 -7 -5 -3 -14 9 -16
-6 -3 -19 6 -6 4 -17 -5 -30 -14 -19 -15 -19 -37 4 -19 21 -20 23 -3 17 15 -5
17 -4 7 8 -9 11 -9 15 1 19 7 3 8 6 2 6 -5 1 -20 -8 -33 -20 -12 -12 -25 -18
-28 -15 -3 3 5 14 18 25 13 11 20 23 16 27 -4 5 -11 4 -15 -1 -10 -14 -63 -37
-70 -30 -3 3 1 5 8 5 7 0 10 3 7 7 -4 3 2 13 13 20 21 15 19 36 -3 27 -10 -3
-14 10 -14 48 -1 45 0 51 11 35 7 -9 11 -29 8 -43z m625 40 c-3 -3 -12 -4 -19
-1 -8 3 -5 6 6 6 11 1 17 -2 13 -5z m-127 -19 c0 -8 -4 -15 -10 -15 -5 0 -7 7
-4 15 4 8 8 15 10 15 2 0 4 -7 4 -15z m-308 -29 c11 -16 13 -23 5 -22 -21 3
-37 17 -37 32 0 21 13 17 32 -10z m172 1 c-3 -8 -12 -18 -20 -21 -11 -4 -11 0
2 20 18 26 28 27 18 1z m304 -6 c-7 -2 -22 -8 -33 -13 -19 -9 -19 -8 -1 6 10
8 15 20 11 26 -4 7 1 6 14 -2 14 -8 17 -14 9 -17z m-353 -1 c-3 -5 -3 -15 1
-22 11 -17 13 -68 3 -74 -5 -3 -7 -10 -4 -15 4 -5 2 -9 -3 -9 -5 0 -8 23 -7
52 3 51 2 52 -15 31 -10 -12 -20 -20 -23 -17 -9 9 27 64 41 64 7 0 10 -4 7
-10z m-69 -17 c0 -10 4 -29 9 -43 7 -21 6 -23 -7 -13 -8 7 -18 9 -23 5 -4 -4
-3 3 3 14 6 12 9 24 6 27 -3 3 -3 10 1 16 9 15 11 14 11 -6z m199 -11 c3 -16
2 -38 -3 -51 -7 -19 -10 -21 -20 -8 -13 15 -6 47 10 47 5 0 7 4 3 10 -8 12
-35 1 -35 -15 0 -7 -7 -19 -17 -26 -15 -13 -15 -12 -5 8 15 27 16 56 2 48 -5
-3 -10 -1 -10 4 0 6 15 11 34 11 30 0 35 -4 41 -28z m183 -11 c9 -5 28 -14 42
-20 24 -11 24 -11 -7 -8 -39 4 -43 -13 -11 -42 18 -17 19 -23 8 -36 -8 -9 -22
-14 -32 -12 -10 3 -18 1 -18 -4 0 -20 -18 -7 -24 16 -4 15 -11 23 -17 19 -6
-4 -7 -9 -3 -13 5 -3 10 -10 11 -16 1 -5 4 -17 7 -25 5 -11 -2 -15 -24 -16
-22 -1 -30 3 -26 12 3 8 1 14 -5 14 -6 0 -8 -17 -5 -42 4 -33 3 -39 -5 -25 -7
12 -17 16 -30 12 -11 -4 -19 -2 -19 5 0 7 9 14 19 17 11 3 17 11 15 18 -6 15
30 30 46 20 5 -3 10 1 10 9 0 10 -6 13 -17 9 -14 -5 -13 -1 5 16 12 12 22 28
22 36 0 8 5 15 10 15 6 0 10 -5 10 -12 0 -6 2 -9 5 -6 12 11 -7 37 -22 31 -11
-5 -14 -3 -9 6 5 7 16 11 26 8 13 -3 17 0 13 9 -6 16 0 18 25 5z m-408 -51 c0
-5 -2 -10 -4 -10 -3 0 -8 5 -11 10 -3 6 -1 10 4 10 6 0 11 -4 11 -10z m25 -29
c-9 -16 -25 -3 -18 15 4 10 9 12 15 6 6 -6 7 -15 3 -21z m-99 -9 c-18 -16 -18
-16 -6 6 6 13 14 21 18 18 3 -4 -2 -14 -12 -24z m40 0 c-17 -16 -18 -16 -5 5
7 12 15 20 18 17 3 -2 -3 -12 -13 -22z m114 -21 c0 -11 5 -21 11 -23 7 -2 5
-9 -5 -17 -14 -12 -16 -11 -16 7 0 15 -5 20 -15 16 -18 -7 -20 7 -3 24 17 17
28 15 28 -7z m-76 -7 c9 -24 7 -28 -9 -14 -17 14 -20 30 -6 30 5 0 12 -7 15
-16z m-109 -4 c3 -5 -1 -10 -9 -10 -8 0 -18 5 -21 10 -3 6 1 10 9 10 8 0 18
-4 21 -10z m49 -7 c4 -10 4 -14 0 -10 -4 4 -15 -5 -25 -19 -9 -15 -19 -21 -23
-16 -4 6 0 14 7 19 7 4 16 16 20 26 8 21 13 22 21 0z m1709 -90 c11 -179 9
-407 -5 -421 -7 -7 -26 -12 -42 -11 -33 1 -29 3 18 14 l28 6 -6 192 c-3 106
-8 222 -12 260 -4 41 -3 67 3 67 6 0 13 -48 16 -107z m-1813 77 c8 -5 12 -11
9 -14 -3 -3 -14 1 -25 9 -21 16 -8 20 16 5z m359 -3 c-2 -1 -12 -9 -22 -16
-15 -12 -17 -12 -11 3 3 9 13 16 22 16 8 0 13 -1 11 -3z m38 -13 c-3 -3 -12
-4 -19 -1 -8 3 -5 6 6 6 11 1 17 -2 13 -5z m-260 -23 c10 -16 9 -18 -8 -14
-10 3 -19 12 -19 19 0 20 13 17 27 -5z m40 -18 c-3 -10 -5 -4 -5 12 0 17 2 24
5 18 2 -7 2 -21 0 -30z m-43 -37 c-10 -25 -21 -19 -28 15 -3 17 -10 28 -16 24
-10 -6 -14 8 -4 17 11 11 54 -39 48 -56z m176 60 c0 -3 -4 -8 -10 -11 -5 -3
-10 -1 -10 4 0 6 5 11 10 11 6 0 10 -2 10 -4z m187 -18 c-3 -8 -6 -5 -6 6 -1
11 2 17 5 13 3 -3 4 -12 1 -19z m-442 2 c3 -5 -1 -10 -10 -10 -9 0 -13 5 -10
10 3 6 8 10 10 10 2 0 7 -4 10 -10z m363 -37 c0 -21 -2 -23 -10 -9 -5 9 -6 21
-3 26 10 16 13 12 13 -17z m32 12 c10 -12 10 -15 -4 -15 -9 0 -16 7 -16 15 0
8 2 15 4 15 2 0 9 -7 16 -15z m-96 -10 c-4 -8 -11 -15 -16 -15 -6 0 -5 6 2 15
7 8 14 15 16 15 2 0 1 -7 -2 -15z m-296 -20 c-3 -3 -9 2 -12 12 -6 14 -5 15 5
6 7 -7 10 -15 7 -18z m152 5 c0 -5 -5 -10 -11 -10 -5 0 -7 5 -4 10 3 6 8 10
11 10 2 0 4 -4 4 -10z m183 -18 c2 7 4 1 3 -14 0 -16 -2 -28 -2 -28 -1 0 -10
12 -20 28 -14 21 -14 24 -2 14 13 -10 17 -10 21 0z m-637 -68 c-3 -9 -6 -82
-6 -162 0 -151 -5 -177 -34 -170 -15 3 -15 5 0 33 23 42 33 293 13 306 -10 6
-8 9 10 9 17 0 22 -4 17 -16z m981 -67 c7 0 10 -3 8 -7 -2 -4 7 -18 21 -31 25
-23 54 -69 54 -85 0 -5 -15 6 -32 23 -54 51 -93 66 -153 58 -53 -6 -75 -21
-89 -59 -3 -10 -9 -16 -12 -13 -3 3 6 28 20 56 30 57 63 74 131 64 22 -3 45
-5 52 -6z m913 -18 c0 -11 -28 -24 -36 -17 -2 3 -2 12 2 21 6 16 34 12 34 -4z
m10 -43 c0 -3 -4 -8 -10 -11 -5 -3 -10 -1 -10 4 0 6 5 11 10 11 6 0 10 -2 10
-4z m-6550 -44 c0 -28 -4 -39 -15 -39 -10 0 -15 10 -15 29 0 17 4 27 10 23 6
-3 10 1 10 9 0 9 2 16 5 16 3 0 5 -17 5 -38z m6553 -13 c-17 -17 -37 -1 -22
17 8 10 15 12 23 4 7 -7 7 -13 -1 -21z m-475 -36 c-10 -2 -26 -2 -35 0 -10 3
-2 5 17 5 19 0 27 -2 18 -5z m492 -17 c0 -2 -8 -10 -17 -17 -16 -13 -17 -12
-4 4 13 16 21 21 21 13z m-1963 -38 c-3 -8 -6 -5 -6 6 -1 11 2 17 5 13 3 -3 4
-12 1 -19z m1906 2 c-3 -11 -12 -20 -19 -20 -18 0 -18 5 2 24 20 21 23 20 17
-4z m-6550 -57 c-7 -2 -19 -2 -25 0 -7 3 -2 5 12 5 14 0 19 -2 13 -5z m5215
-79 c-4 -3 -59 -7 -125 -9 -83 -2 -100 -1 -58 4 78 10 190 13 183 5z m-2948
-405 l0 -359 308 0 c169 0 618 -1 997 -1 380 0 695 0 700 1 6 1 15 1 20 0 23
-5 500 -8 512 -3 10 4 13 68 14 312 0 168 4 329 9 356 6 40 8 27 9 -70 1 -82
4 -115 11 -105 13 20 13 -35 1 -110 -5 -30 -11 -127 -12 -215 -3 -149 -2 -160
15 -163 10 -2 22 2 27 10 6 9 9 7 9 -9 0 -23 -3 -23 -122 -25 -68 -1 -193 -2
-278 -1 -93 1 -143 -2 -125 -7 28 -7 27 -8 -15 -10 -119 -5 -270 -4 -315 3
-59 10 -785 15 -779 6 2 -4 -24 -10 -59 -13 -34 -4 -76 -12 -93 -18 -21 -8
-93 -8 -245 -1 -118 5 -248 6 -289 1 -41 -4 -142 -11 -224 -14 l-149 -7 6 63
c4 35 7 214 7 399 l0 336 30 1 30 1 0 -358z m904 199 c9 -36 -18 -48 -104 -48
-78 0 -100 9 -100 42 0 14 11 18 73 21 39 1 84 4 98 5 20 2 28 -4 33 -20z
m631 12 c-3 -6 4 -14 17 -19 22 -8 22 -8 -10 -25 -44 -23 -189 -27 -202 -6
-17 26 -11 48 13 53 48 9 188 7 182 -3z m658 -12 c15 -7 27 -16 27 -20 0 -13
-70 -29 -140 -31 -76 -2 -101 11 -87 47 5 13 22 16 90 16 46 0 95 -6 110 -12z
m1900 -28 c7 0 4 -5 -5 -11 -11 -6 -15 -16 -11 -27 6 -15 5 -15 -10 -3 -22 18
-23 55 -1 47 9 -3 21 -6 27 -6z m-2633 -49 l45 -7 -83 -13 c-79 -12 -102 -10
-102 9 0 17 69 23 140 11z m680 0 c20 -6 14 -9 -35 -16 -57 -8 -58 -9 -25 -16
19 -3 28 -7 20 -8 -11 -1 -16 -15 -17 -51 l-3 -50 86 0 c49 0 83 -4 79 -9 -3
-5 -10 -33 -15 -62 -14 -74 -31 -89 -98 -89 -53 0 -54 -1 -39 -18 22 -24 22
-76 1 -107 -23 -36 -39 -31 -40 13 -4 139 -4 188 3 274 7 86 6 98 -9 107 -10
6 -27 11 -38 11 -36 0 -21 19 18 23 59 6 85 6 112 -2z m-1251 -5 c-2 -2 -46
-7 -96 -10 -64 -5 -93 -4 -93 3 0 7 34 11 97 11 53 0 94 -2 92 -4z m3226 -15
c16 -7 14 -9 -17 -15 -20 -3 -41 -13 -48 -21 -11 -13 -7 -15 21 -15 69 -1 -1
-22 -89 -28 -76 -4 -85 -3 -79 11 4 11 1 17 -8 17 -15 0 -30 35 -20 50 7 12
210 12 240 1z m-2640 -11 c-3 -5 -15 -10 -26 -10 -16 0 -19 -7 -19 -39 0 -22
-3 -46 -6 -54 -5 -13 4 -14 55 -10 89 8 90 7 77 -73 -12 -74 -19 -80 -96 -83
-33 -2 -34 -2 -16 -16 11 -8 14 -15 8 -15 -20 0 -14 -50 6 -51 15 -1 15 -2 0
-6 -9 -2 -18 -14 -20 -26 -4 -32 -44 -35 -54 -5 -6 20 -7 303 -1 363 2 15 12
21 42 26 22 3 44 7 48 7 5 1 5 -2 2 -8z m-645 -17 c-23 -9 -30 -24 -30 -65 l0
-38 88 0 c48 0 83 -4 77 -8 -5 -4 -12 -32 -13 -62 -2 -30 -7 -58 -11 -63 -4
-4 -38 -10 -75 -14 -52 -5 -66 -9 -61 -20 3 -8 5 -28 5 -45 0 -23 4 -29 15
-24 8 3 15 1 15 -4 0 -6 -7 -10 -15 -10 -8 0 -15 -8 -15 -18 0 -20 -18 -42
-35 -42 -16 0 -27 255 -15 339 9 68 19 81 60 80 15 0 19 -3 10 -6z m-1300 -21
c0 -4 -5 -13 -12 -20 -9 -9 -9 -12 1 -12 7 0 10 -4 6 -9 -3 -5 4 -25 15 -44
16 -26 21 -53 21 -104 1 -177 -133 -339 -201 -243 -12 17 -30 30 -40 30 -10 0
-22 5 -25 10 -8 13 -175 13 -175 1 0 -5 5 -11 11 -13 8 -3 6 -10 -5 -21 -13
-12 -14 -17 -4 -17 10 0 9 -3 -2 -10 -12 -8 -12 -10 5 -11 17 -1 16 -2 -5 -9
-17 -5 -19 -8 -7 -9 21 -1 22 -14 2 -31 -8 -7 -12 -17 -9 -22 10 -15 -18 -69
-40 -78 -12 -5 164 -9 408 -9 236 -1 427 -3 424 -6 -3 -3 -77 -8 -164 -11
-188 -7 -300 -12 -334 -18 -14 -2 -30 1 -37 6 -6 5 -67 11 -135 13 -67 2 -111
1 -95 -1 15 -3 27 -10 27 -16 0 -8 -33 -9 -112 -3 -187 14 -268 13 -378 -2
-61 -8 -134 -11 -175 -8 -38 4 -153 3 -255 -2 l-185 -8 120 -5 c66 -4 -60 -7
-280 -8 -220 -1 -417 -5 -438 -8 l-37 -7 0 43 0 43 218 -4 c119 -2 466 -3 770
-1 504 2 552 3 538 18 -44 43 -79 110 -84 156 -4 47 -4 48 23 48 23 0 26 2 15
15 -14 17 -19 17 228 15 l143 -1 -6 45 c-9 59 10 142 41 183 26 35 90 73 122
73 26 0 42 20 42 52 0 24 4 28 30 28 17 0 30 -4 30 -8z m805 -21 c-3 -6 -1
-28 4 -50 5 -24 5 -41 0 -41 -5 0 -9 -4 -9 -10 0 -5 15 -11 33 -11 l32 -2 -35
-7 c-28 -5 -31 -8 -18 -14 10 -5 15 -13 11 -19 -3 -5 2 -16 12 -23 17 -13 17
-14 1 -20 -13 -5 -14 -9 -6 -14 10 -6 9 -15 -3 -38 -11 -22 -12 -32 -3 -36 8
-3 7 -7 -3 -14 -7 -5 -11 -14 -8 -18 16 -26 -48 -64 -108 -64 -27 0 -34 4 -40
27 -9 38 -3 243 7 243 5 0 8 6 7 13 -1 6 -1 33 0 60 l1 47 66 0 c38 0 63 -4
59 -9z m4195 -60 c0 -39 -4 -72 -10 -76 -5 -3 -6 -15 -1 -28 4 -12 7 -33 5
-47 -2 -14 -5 -95 -7 -180 -2 -112 -7 -161 -18 -177 -20 -33 -34 -28 -49 17
-11 32 -11 72 -1 211 8 118 8 175 1 184 -8 9 -3 14 19 18 l29 6 -5 71 c-5 66
-4 70 16 70 19 0 21 -5 21 -69z m323 62 c-21 -4 -23 -10 -23 -64 0 -38 5 -66
14 -74 7 -8 16 -12 18 -10 3 3 6 -86 7 -198 l2 -203 -25 -13 c-41 -22 -52 -9
-59 66 -10 97 -8 251 2 235 9 -15 24 228 15 252 -5 13 1 16 32 15 24 -1 30 -3
17 -6z m-6171 -30 c-15 -3 -29 -19 -43 -54 l-22 -50 -51 3 c-42 2 -51 7 -55
23 -2 11 -7 22 -11 25 -5 3 -12 18 -15 33 l-7 27 113 -1 c63 -1 104 -4 91 -6z
m5331 -10 c-18 -2 -48 -2 -65 0 -18 2 -4 4 32 4 36 0 50 -2 33 -4z m-4219 -24
c28 -22 56 -68 56 -92 0 -8 -27 -43 -61 -78 l-60 -64 53 78 c51 75 52 79 37
105 -8 15 -27 33 -42 42 -32 18 -51 9 -84 -40 -19 -28 -23 -30 -23 -12 0 30
47 82 75 82 12 0 34 -9 49 -21z m4206 -8 c-21 -6 -25 -13 -27 -46 -1 -22 1
-32 4 -22 3 11 14 17 32 17 23 0 27 -4 26 -27 0 -16 -7 -35 -15 -43 -9 -8 -11
-12 -6 -7 26 19 35 6 17 -25 -11 -18 -22 -49 -25 -68 l-5 -35 12 35 c17 49 26
61 44 58 9 -2 17 5 18 15 2 9 -1 15 -5 12 -14 -9 -22 35 -9 51 10 12 9 13 -7
7 -16 -6 -17 -5 -4 9 13 14 16 14 28 -1 11 -14 12 -13 7 9 -4 17 -3 21 3 11 5
-7 14 -11 20 -7 6 3 8 -2 5 -13 -3 -11 -14 -22 -25 -24 -11 -3 -17 -10 -14
-16 4 -6 14 -8 24 -5 14 5 15 4 2 -5 -13 -10 -13 -12 0 -21 13 -9 13 -12 -2
-24 -10 -7 -18 -18 -18 -24 0 -11 -30 -25 -38 -17 -3 3 0 5 7 5 7 0 9 5 5 11
-4 8 -9 7 -15 -2 -12 -19 -11 -42 0 -34 14 8 21 -9 10 -25 -8 -13 -10 -13 -18
-1 -8 12 -11 9 -16 -12 -10 -37 -3 -53 15 -36 18 17 50 21 50 7 0 -5 -9 -12
-20 -15 -11 -3 -20 -9 -20 -13 0 -4 -9 -18 -21 -31 -14 -17 -19 -32 -15 -51 5
-28 -8 -39 -17 -15 -6 14 -10 -15 -8 -53 2 -22 -2 -26 -26 -25 l-28 0 0 215
c0 118 4 232 8 253 8 36 9 37 50 36 34 -1 37 -2 17 -8z m-5716 -55 c-41 -18
-49 -41 -22 -66 l22 -20 -92 0 -92 0 0 34 c0 19 -3 41 -6 50 -5 14 8 16 107
16 105 -1 111 -2 83 -14z m5861 -25 c-3 -6 -11 -11 -16 -11 -5 0 -4 6 3 14 14
16 24 13 13 -3z m-1177 -28 c-15 -2 -35 -14 -43 -26 -8 -12 -15 -16 -15 -10 0
6 -3 18 -6 27 -5 13 2 16 42 15 29 -1 38 -4 22 -6z m1202 -7 c0 -3 -4 -8 -10
-11 -5 -3 -10 -1 -10 4 0 6 5 11 10 11 6 0 10 -2 10 -4z m-35 -62 l-15 -29 0
27 c0 14 6 28 13 31 18 7 19 3 2 -29z m-5515 16 c12 -8 9 -10 -13 -10 -16 0
-26 4 -22 10 8 12 16 12 35 0z m4345 -10 c18 -8 17 -9 -7 -9 -29 -1 -38 -15
-15 -24 7 -3 19 -30 26 -60 13 -60 4 -97 -38 -145 -39 -45 -81 -6 -81 73 0 42
35 129 64 158 19 19 22 19 51 7z m430 -20 c-89 -11 -145 -11 -145 0 0 6 40 9
103 9 95 -2 98 -2 42 -9z m-4872 -29 c3 -14 1 -18 -9 -14 -15 6 -18 16 -7 26
9 10 10 9 16 -12z m-736 -1 c-40 -8 -61 -20 -33 -20 9 0 15 -4 11 -9 -3 -5 -1
-12 5 -16 16 -10 12 -157 -5 -199 -16 -37 -43 -47 -74 -27 -18 11 -34 197 -20
223 5 10 6 18 2 18 -4 0 -1 5 7 10 10 6 11 10 3 10 -7 0 -13 5 -13 10 0 6 32
10 78 9 62 -1 70 -3 39 -9z m503 2 c0 -5 -23 -14 -50 -21 -53 -14 -63 -34 -19
-39 24 -3 24 -4 21 -90 -4 -94 -12 -112 -48 -112 -23 0 -24 4 -26 68 l-2 67
-6 -70 c-6 -61 -7 -53 -8 58 -2 98 -5 128 -14 125 -8 -3 -15 -30 -19 -64 l-6
-59 -1 63 c-2 56 0 64 21 72 28 11 157 13 157 2z m5045 -6 c12 -12 10 -15 -13
-19 -32 -6 -37 -3 -29 18 8 19 24 19 42 1z m756 -19 c-8 -8 -11 -7 -11 4 0 20
13 34 18 19 3 -7 -1 -17 -7 -23z m-5471 13 c-32 -7 -33 -8 -12 -15 15 -5 21
-13 18 -22 -4 -8 -3 -20 0 -25 10 -15 17 -137 10 -164 -5 -19 -13 -24 -37 -24
l-30 0 3 120 c3 109 1 120 -14 120 -10 0 -18 5 -18 10 0 6 25 9 58 9 51 -1 53
-2 22 -9z m2097 -37 c-3 -10 -5 -2 -5 17 0 19 2 27 5 18 2 -10 2 -26 0 -35z
m1300 0 c-3 -10 -5 -4 -5 12 0 17 2 24 5 18 2 -7 2 -21 0 -30z m1358 -3 c23
-6 14 -8 -38 -9 -43 -1 -66 3 -62 9 7 11 55 11 100 0z m765 -11 c0 -6 -4 -7
-10 -4 -5 3 -10 11 -10 16 0 6 5 7 10 4 6 -3 10 -11 10 -16z m-500 7 c0 -3 -4
-8 -10 -11 -5 -3 -10 -1 -10 4 0 6 5 11 10 11 6 0 10 -2 10 -4z m470 -22 c0
-8 -4 -14 -10 -14 -5 0 -10 -8 -10 -18 0 -9 -9 -23 -20 -30 -11 -7 -20 -18
-20 -26 0 -7 -9 -16 -20 -19 -24 -6 -27 16 -4 35 40 32 64 62 64 80 0 11 5 16
10 13 6 -3 10 -13 10 -21z m-710 -14 c0 -5 -3 -10 -7 -10 -5 0 -19 -16 -32
-35 -26 -39 -62 -46 -93 -18 -18 16 -24 53 -11 66 10 11 143 8 143 -3z m-4157
-67 c-7 -2 -19 -2 -25 0 -7 3 -2 5 12 5 14 0 19 -2 13 -5z m1894 1 c-3 -3 -12
-4 -19 -1 -8 3 -5 6 6 6 11 1 17 -2 13 -5z m2937 -62 c-16 -15 -17 -15 -12 0
4 9 2 18 -3 20 -6 2 -7 11 -3 21 6 17 8 16 21 -3 13 -18 12 -22 -3 -38z m-72
-29 c-3 -16 -7 -22 -10 -15 -4 13 4 42 11 42 2 0 2 -12 -1 -27z m28 -13 c-6
-12 -14 -19 -17 -17 -2 3 1 15 7 27 6 12 14 19 17 17 2 -3 -1 -15 -7 -27z
m-6293 -36 c-3 -3 -12 -4 -19 -1 -8 3 -5 6 6 6 11 1 17 -2 13 -5z m7443 -23
c0 -5 -305 -7 -677 -5 -1010 4 -1823 -6 -1823 -22 0 -19 37 -26 127 -23 43 2
119 1 168 -1 63 -2 26 -6 -120 -10 -115 -3 -210 -6 -211 -6 -1 1 1 18 4 39 l4
38 1264 -2 c695 0 1264 -4 1264 -8z m-5872 -21 c30 -2 32 -3 14 -8 -27 -8
-152 -3 -152 6 0 7 53 7 138 2z m-335 -37 c-23 -2 -64 -2 -90 0 -26 2 -7 3 42
3 50 0 71 -1 48 -3z m105 0 c-10 -2 -28 -2 -40 0 -13 2 -5 4 17 4 22 1 32 -1
23 -4z m245 0 c-34 -2 -93 -2 -130 0 -37 2 -9 3 62 3 72 0 102 -1 68 -3z
m3930 0 c-29 -2 -78 -2 -110 0 -32 2 -8 3 52 3 61 0 87 -1 58 -3z m-4685 -10
c-10 -2 -26 -2 -35 0 -10 3 -2 5 17 5 19 0 27 -2 18 -5z m-429 -77 l9 -31 1
33 1 32 218 0 c156 0 221 -3 230 -12 9 -9 12 -9 12 0 0 17 341 17 358 0 7 -7
12 -8 12 -2 0 11 280 0 360 -15 115 -21 166 -34 225 -60 117 -50 125 -66 126
-233 0 -90 -3 -123 -13 -129 -20 -13 -26 -11 -33 11 -9 27 -69 106 -140 182
l-60 65 0 -126 c0 -106 3 -130 19 -154 22 -32 36 -36 141 -39 78 -3 80 -4 102
-37 22 -32 23 -43 23 -215 0 -100 -3 -313 -7 -475 -6 -285 -7 -294 -29 -320
-18 -22 -31 -27 -71 -28 -26 -1 -41 1 -32 3 11 4 18 22 23 60 8 68 -6 127 -56
241 -22 51 -34 137 -44 308 -3 72 -11 139 -15 150 -12 26 -2 -255 11 -315 5
-25 9 -61 9 -80 l0 -35 -29 34 c-62 73 -73 162 -41 340 17 94 18 107 4 148 -8
24 -18 42 -20 39 -3 -3 -18 1 -34 9 -31 17 -52 20 -29 5 12 -8 11 -10 -6 -10
-30 0 -56 -33 -53 -67 2 -15 0 -33 -4 -40 -10 -16 9 -95 33 -143 54 -106 65
-202 46 -400 -8 -79 -7 -87 14 -112 13 -18 32 -28 48 -29 15 0 21 -3 15 -6
-13 -5 -8 -50 8 -67 4 -5 1 -15 -7 -23 -12 -12 -55 -14 -257 -11 -133 2 -249
7 -258 11 -8 4 -23 21 -32 36 -15 25 -17 65 -19 298 -1 147 -4 232 -7 188 -4
-47 -9 -73 -13 -62 -4 9 -11 16 -15 15 -4 -1 -24 3 -43 9 -19 6 -61 14 -93 18
-31 4 -55 11 -52 16 8 11 -204 11 -260 0 -38 -8 -37 -9 25 -11 62 -2 63 -3 25
-11 -22 -4 -60 -9 -85 -10 -41 -2 -39 -3 20 -9 l65 -7 -50 -2 -50 -3 40 -13
c26 -9 33 -14 20 -15 -17 -2 -17 -3 -2 -7 9 -2 17 -7 17 -9 0 -3 -25 -36 -55
-73 l-55 -68 0 -122 c0 -108 -2 -123 -20 -141 -12 -12 -18 -25 -15 -30 4 -6
-10 -10 -33 -10 l-39 0 -6 98 c-13 184 -9 345 9 370 12 17 12 22 2 20 -7 -2
-13 4 -13 12 0 9 13 17 35 21 l35 6 -38 2 c-26 1 -46 9 -63 26 -25 25 -25 26
-20 167 4 128 4 132 -3 38 -11 -148 -21 -219 -31 -225 -14 -9 -29 28 -31 78
-2 28 -10 55 -20 66 -9 10 -19 27 -22 37 -2 10 -5 0 -6 -23 -1 -49 -10 -75
-22 -67 -5 3 -9 0 -9 -5 0 -6 6 -11 14 -11 9 0 22 -27 36 -72 12 -40 29 -77
38 -84 13 -9 16 -32 18 -108 1 -53 -2 -99 -6 -101 -5 -3 -14 19 -20 48 -18 73
-30 92 -26 37 2 -25 2 -37 -1 -27 -2 9 -11 17 -19 17 -8 0 -13 4 -10 9 3 5 -1
11 -9 15 -19 7 -21 86 -2 105 10 11 10 13 0 7 -8 -5 -13 -1 -13 10 0 30 -23
93 -32 88 -5 -3 -7 16 -4 43 3 26 -1 73 -8 103 l-13 55 -7 -50 c-11 -80 -14
-83 -15 -23 -1 60 -17 88 -50 88 -10 0 -27 11 -37 25 -10 14 -26 25 -36 25
-10 0 -19 11 -23 30 -9 40 -25 38 -25 -2 -1 -28 -2 -30 -11 -15 -6 10 -8 25
-5 33 3 8 1 14 -4 14 -6 0 -10 -19 -10 -42 0 -23 -3 -39 -6 -36 -3 4 -9 131
-13 285 l-8 278 -3 -305 c-2 -168 -5 -275 -7 -237 -4 62 -6 67 -27 67 -24 0
-70 43 -80 76 -3 11 -14 29 -24 40 -50 55 -55 73 -49 171 6 83 11 101 44 161
33 60 96 132 116 132 4 0 8 10 8 23 1 18 3 16 9 -8 4 -16 8 -23 9 -15 4 49
249 130 384 127 33 -1 39 -5 46 -31z m5450 -1 l4 -30 6 30 6 30 188 3 c135 2
187 -1 187 -9 0 -8 4 -8 15 1 11 9 98 11 362 8 285 -4 361 -8 421 -22 53 -13
72 -22 72 -34 0 -15 2 -15 10 -2 6 10 10 11 10 3 0 -7 5 -13 11 -13 22 0 82
-56 124 -114 87 -123 112 -215 80 -294 -27 -64 -47 -78 -117 -80 -63 -2 -63
-2 -82 32 -10 20 -22 33 -26 31 -4 -2 -15 26 -25 63 -10 37 -29 89 -44 116
l-26 50 -7 -60 c-4 -32 -13 -113 -20 -179 l-13 -120 -5 90 c-6 111 -20 80 -20
-47 0 -52 -4 -88 -11 -90 -5 -2 -7 -11 -3 -22 5 -14 9 -15 15 -4 6 9 9 5 9
-13 0 -36 19 -91 38 -109 14 -14 15 -13 1 4 -12 17 -9 17 29 -4 24 -14 48 -30
53 -36 12 -14 39 -191 38 -244 -1 -28 -4 -23 -13 25 l-13 60 -4 -50 -5 -50
-14 50 -15 50 -6 -55 -6 -55 -2 65 -3 65 -13 -55 c-8 -30 -15 -84 -16 -120 -2
-59 -3 -60 -6 -15 -6 98 -15 155 -24 155 -5 0 -9 -16 -9 -35 0 -46 -16 -45
-25 2 -9 50 -14 56 -31 42 -11 -9 -14 -8 -14 5 0 31 -129 124 -151 110 -5 -3
1 -19 13 -35 20 -26 23 -46 26 -140 3 -60 1 -135 -4 -167 l-8 -57 -7 45 c-4
33 -6 20 -6 -48 0 -51 -3 -96 -7 -99 -3 -3 -6 43 -7 103 0 60 -4 127 -8 149
-7 33 -9 22 -11 -60 l-3 -100 -8 84 c-13 123 -28 136 -29 26 -2 -92 -4 -97
-15 -32 -8 50 -25 47 -26 -5 l-1 -43 -18 55 -18 55 -1 -64 c-1 -72 -13 -73
-29 -1 -9 40 -10 34 -11 -60 -1 -72 -4 -100 -11 -90 -5 8 -10 34 -10 58 0 61
-20 52 -21 -10 -1 -29 -4 -41 -6 -25 -6 40 -23 33 -23 -10 0 -49 -19 -24 -21
27 -1 32 -2 33 -9 10 l-8 -25 -2 25 c-1 21 -3 19 -13 -13 -7 -22 -16 -35 -21
-30 -5 4 -6 -5 -3 -22 4 -16 4 -24 1 -17 -3 6 -10 10 -15 6 -5 -3 -9 9 -9 25
0 17 -4 31 -10 31 -5 0 -10 -15 -10 -34 0 -65 -20 -50 -22 16 -2 56 -2 54 -7
-27 l-6 -90 -13 70 c-17 96 -33 413 -22 458 4 21 14 45 21 55 6 9 -11 -8 -39
-38 -49 -53 -51 -57 -55 -120 -2 -36 -4 18 -5 120 -3 205 -19 282 -20 98 -1
-81 -6 -123 -17 -144 -8 -16 -16 -27 -17 -24 -6 9 -94 -46 -117 -74 -23 -26
-25 -27 -31 -10 -11 30 -23 -71 -15 -126 4 -30 3 -50 -4 -55 -7 -4 -11 4 -12
22 0 15 -3 22 -6 16 -2 -7 -13 -13 -23 -13 -10 0 -20 -5 -22 -11 -6 -17 -39 2
-49 28 -8 22 -14 24 -61 21 -46 -3 -53 -6 -56 -25 -3 -20 -9 -23 -53 -23 -47
0 -49 1 -49 28 0 45 15 52 117 52 68 0 93 3 93 13 0 8 -15 11 -51 8 -29 -2
-56 2 -62 8 -6 6 -19 11 -28 11 -10 0 -20 9 -24 20 -6 19 -6 19 -38 0 -22 -14
-50 -20 -92 -20 -66 0 -76 4 -94 37 -16 30 -15 123 2 119 6 -1 9 -1 5 1 -16 9
-7 31 35 94 l42 64 0 235 c0 167 -4 241 -12 255 -11 18 -12 17 -13 -12 0 -18
-6 -50 -14 -70 -8 -21 -20 -72 -26 -113 -15 -90 -29 -122 -31 -70 -1 19 -5 87
-9 150 -6 113 -7 112 -8 -69 -2 -145 -5 -181 -14 -173 -7 6 -35 12 -63 13 -57
3 -72 14 -78 55 -2 16 -5 -24 -6 -89 l-1 -117 37 -56 c47 -71 55 -140 24 -202
-24 -47 -52 -66 -83 -56 -16 5 -18 8 -7 15 11 7 11 9 -2 9 -9 0 -21 12 -27 28
-45 123 -46 179 -4 212 14 11 23 23 19 26 -9 10 -58 -28 -83 -65 -17 -26 -24
-30 -24 -17 0 18 57 80 92 101 15 9 17 40 20 288 3 269 2 279 -17 293 -17 13
-18 16 -5 24 12 8 11 10 -7 10 -13 0 -23 3 -23 8 0 28 205 172 245 172 7 0 16
6 18 13 3 7 6 4 6 -6 1 -16 3 -17 16 -4 9 9 46 18 92 23 43 4 101 10 128 14
89 14 109 9 114 -25z m-2564 -360 l7 -240 -27 -55 c-35 -68 -43 -137 -21 -180
14 -30 14 -31 -1 -19 -40 34 -56 135 -29 187 8 15 24 35 37 46 l22 18 -5 307
c-3 168 -2 277 2 241 4 -36 11 -173 15 -305z m-361 30 l6 -270 -40 -39 c-59
-58 -68 -160 -19 -212 34 -37 5 -29 -35 10 -31 28 -36 40 -36 77 1 57 30 121
69 150 l31 23 0 275 c0 157 4 271 9 266 5 -6 11 -131 15 -280z m1465 31 c2
-139 -6 -97 -11 64 -4 89 -3 122 2 85 4 -33 8 -100 9 -149z m-2400 53 c23
-100 26 -145 11 -183 -6 -18 -6 -26 1 -26 6 0 7 -6 2 -12 -4 -7 -6 -22 -4 -33
2 -18 1 -18 -12 -5 -11 11 -16 55 -20 183 -4 92 -5 167 -3 167 3 0 14 -41 25
-91z m3231 24 c0 -44 -5 -41 -14 10 -5 27 -4 37 3 32 6 -3 11 -22 11 -42z
m2673 17 c3 -11 1 -20 -4 -20 -5 0 -9 6 -9 14 0 8 -6 17 -12 19 -8 4 -7 6 3 6
9 1 19 -8 22 -19z m-2702 -137 c-8 -14 -10 -7 -11 32 0 28 4 61 8 75 5 19 8
11 10 -32 2 -32 -2 -66 -7 -75z m-1203 -62 l-5 -168 -34 -43 c-33 -41 -34 -45
-33 -124 0 -54 6 -94 17 -114 19 -38 6 -42 -22 -7 -27 35 -34 76 -26 142 5 45
14 63 46 98 39 42 39 43 39 122 0 98 11 263 18 263 3 0 3 -76 0 -169z m3927
119 c3 -5 -1 -10 -10 -10 -9 0 -13 5 -10 10 3 6 8 10 10 10 2 0 7 -4 10 -10z
m600 -70 c-3 -5 -14 -10 -23 -10 -15 0 -15 2 -2 10 20 13 33 13 25 0z m52 -12
c-3 -8 -6 -5 -6 6 -1 11 2 17 5 13 3 -3 4 -12 1 -19z m-387 -9 c0 -5 -4 -9
-10 -9 -5 0 -10 7 -10 16 0 8 5 12 10 9 6 -3 10 -10 10 -16z m-543 -11 c-3 -8
-6 -5 -6 6 -1 11 2 17 5 13 3 -3 4 -12 1 -19z m319 -15 c-11 -11 -17 4 -9 23
7 18 8 18 11 1 2 -10 1 -21 -2 -24z m-221 -42 c-6 -5 -25 10 -25 20 0 5 6 4
14 -3 8 -7 12 -15 11 -17z m635 2 c0 -13 -3 -13 -15 -3 -8 7 -12 16 -9 21 8
13 24 1 24 -18z m63 1 c-7 -19 -10 -18 -16 5 -3 13 -1 18 9 14 7 -2 10 -11 7
-19z m87 16 c0 -5 -5 -10 -11 -10 -5 0 -7 5 -4 10 3 6 8 10 11 10 2 0 4 -4 4
-10z m-520 -15 c0 -8 -4 -15 -10 -15 -5 0 -7 7 -4 15 4 8 8 15 10 15 2 0 4 -7
4 -15z m250 -1 c0 -9 -5 -14 -12 -12 -18 6 -21 28 -4 28 9 0 16 -7 16 -16z
m280 -24 c0 -5 -5 -10 -11 -10 -5 0 -7 5 -4 10 3 6 8 10 11 10 2 0 4 -4 4 -10z
m-487 -17 c-3 -7 -9 -13 -14 -13 -5 0 -9 6 -9 13 0 8 6 14 14 14 8 0 12 -6 9
-14z m434 -5 c-3 -8 -6 -5 -6 6 -1 11 2 17 5 13 3 -3 4 -12 1 -19z m-317 -13
c0 -8 -4 -15 -10 -15 -5 0 -10 7 -10 15 0 8 5 15 10 15 6 0 10 -7 10 -15z
m301 -30 c-5 -19 -6 -19 -9 3 -2 12 -8 20 -13 17 -5 -3 -6 1 -3 9 9 23 32 -4
25 -29z m150 -3 c-7 -2 -23 6 -35 18 l-21 22 35 -18 c21 -10 30 -19 21 -22z
m-701 13 c-7 -9 -15 -13 -17 -11 -7 7 7 26 19 26 6 0 6 -6 -2 -15z m202 -17
c-8 -8 -9 -4 -5 13 4 13 8 18 11 10 2 -7 -1 -18 -6 -23z m143 -2 c0 -13 -3
-22 -7 -19 -5 2 -8 13 -8 24 0 10 3 19 8 19 4 0 7 -11 7 -24z m38 4 c-6 -24
-23 -37 -23 -18 0 12 18 38 26 38 1 0 0 -9 -3 -20z m-423 1 c0 -10 -39 -11
-45 -2 -2 5 7 9 20 9 14 0 25 -3 25 -7z m-3473 -183 c-2 -29 -3 -6 -3 52 0 58
1 81 3 53 2 -29 2 -77 0 -105z m3713 126 c0 -8 -4 -14 -9 -14 -11 0 -22 26
-14 34 9 9 23 -3 23 -20z m33 -10 c-7 -19 -10 -18 -16 5 -3 13 -1 18 9 14 7
-2 10 -11 7 -19z m338 3 c-10 -9 -11 -8 -5 6 3 10 9 15 12 12 3 -3 0 -11 -7
-18z m79 19 c0 -2 -9 -6 -20 -9 -11 -3 -20 -1 -20 4 0 5 9 9 20 9 11 0 20 -2
20 -4z m-595 -16 c4 -6 -6 -7 -27 -3 -44 8 -48 13 -10 13 17 0 34 -4 37 -10z
m-9244 -10 c20 -11 26 -54 10 -65 -5 -3 -12 -19 -16 -35 -5 -21 -13 -30 -26
-30 -27 0 -24 17 8 44 30 26 27 46 -11 71 -20 14 -29 14 -48 4 -21 -11 -22
-11 -9 4 15 19 62 22 92 7z m690 -16 l24 -26 -28 -20 c-33 -24 -36 -56 -4 -62
12 -3 59 -7 104 -9 47 -2 89 -9 97 -17 18 -14 22 -95 6 -105 -5 -3 -54 -1
-107 5 -54 7 -103 12 -110 13 -7 0 -10 3 -8 6 5 9 -17 36 -41 49 -13 7 -34 8
-57 2 -29 -6 -45 -4 -74 12 -24 12 -52 18 -75 16 -21 -2 -34 0 -30 4 4 4 56
10 116 14 105 7 110 8 137 38 16 17 29 34 29 38 0 4 -15 15 -32 24 -42 21 -41
21 -33 33 12 20 61 12 86 -15z m8314 15 c4 -6 5 -12 2 -15 -7 -7 -37 7 -37 17
0 13 27 11 35 -2z m692 -11 c-3 -8 -6 -5 -6 6 -1 11 2 17 5 13 3 -3 4 -12 1
-19z m-5397 -109 c0 -33 -5 -70 -11 -82 -20 -38 -52 -67 -73 -67 -16 1 -13 4
11 15 21 9 35 23 39 40 10 40 -1 182 -16 202 -7 10 1 3 19 -15 28 -29 31 -39
31 -93z m4777 93 c-10 -10 -17 -24 -17 -30 0 -15 -26 -16 -35 -2 -3 6 2 13 12
17 10 4 24 15 32 25 7 11 16 17 19 14 3 -3 -2 -14 -11 -24z m330 -33 c12 -14
12 -17 -3 -23 -12 -5 -15 -2 -10 9 3 9 -1 18 -9 21 -8 3 -11 12 -8 22 6 13 7
13 11 1 3 -7 11 -21 19 -30z m181 14 c-2 -10 -9 -24 -16 -32 -12 -12 -15 -12
-23 0 -6 9 -9 10 -9 2 0 -7 -7 -10 -15 -7 -20 8 -9 24 16 24 11 0 22 7 25 15
8 21 26 19 22 -2z m184 -5 c-7 -7 -12 -8 -12 -2 0 14 12 26 19 19 2 -3 -1 -11
-7 -17z m-646 -16 c-18 -16 -18 -16 -6 6 6 13 14 21 18 18 3 -4 -2 -14 -12
-24z m348 -6 c-6 -16 -8 -17 -16 -2 -11 19 0 42 13 29 6 -6 7 -18 3 -27z
m-374 10 c-7 -7 -13 -7 -20 0 -6 6 -3 10 10 10 13 0 16 -4 10 -10z m160 -20
c0 -3 -4 -8 -10 -11 -5 -3 -10 -1 -10 4 0 6 5 11 10 11 6 0 10 -2 10 -4z
m-5583 -163 c-2 -27 -3 -5 -3 47 0 52 1 74 3 48 2 -27 2 -69 0 -95z m5934 114
c-10 -9 -11 -8 -5 6 3 10 9 15 12 12 3 -3 0 -11 -7 -18z m-311 9 c0 -3 -4 -8
-10 -11 -5 -3 -10 -1 -10 4 0 6 5 11 10 11 6 0 10 -2 10 -4z m260 -12 c0 -8
-5 -12 -10 -9 -6 4 -8 11 -5 16 9 14 15 11 15 -7z m160 1 c0 -8 -4 -15 -10
-15 -5 0 -7 7 -4 15 4 8 8 15 10 15 2 0 4 -7 4 -15z m-475 -5 c3 -6 -1 -7 -9
-4 -18 7 -21 14 -7 14 6 0 13 -4 16 -10z m-9027 -12 c5 -7 7 -33 3 -58 -7 -52
-18 -56 -106 -45 -47 5 -54 10 -72 43 -21 41 -39 48 -138 52 l-60 3 45 7 c83
13 317 11 328 -2z m9589 -20 c-3 -7 -5 -2 -5 12 0 14 2 19 5 13 2 -7 2 -19 0
-25z m-692 12 c3 -5 1 -10 -4 -10 -6 0 -11 5 -11 10 0 6 2 10 4 10 3 0 8 -4
11 -10z m40 0 c3 -5 2 -10 -4 -10 -5 0 -13 5 -16 10 -3 6 -2 10 4 10 5 0 13
-4 16 -10z m210 -8 c-3 -3 -11 0 -18 7 -9 10 -8 11 6 5 10 -3 15 -9 12 -12z
m377 -14 c-7 -7 -12 -8 -12 -2 0 14 12 26 19 19 2 -3 -1 -11 -7 -17z m-3911
-103 c22 -47 24 -110 5 -144 -11 -21 -12 -17 -8 32 6 71 0 93 -41 153 -49 73
-53 84 -11 39 20 -22 45 -58 55 -80z m3879 111 c0 -3 -4 -8 -10 -11 -5 -3 -10
-1 -10 4 0 6 5 11 10 11 6 0 10 -2 10 -4z m-4073 -43 c-36 -39 -59 -99 -60
-158 0 -47 -1 -48 -10 -19 -7 23 -5 47 7 88 16 53 59 115 80 116 6 0 -2 -12
-17 -27z m3765 -25 c-7 -7 -12 -8 -12 -2 0 14 12 26 19 19 2 -3 -1 -11 -7 -17z
m-963 -118 c-1 -33 -2 -32 -14 15 -6 28 -15 61 -18 75 -4 14 2 7 13 -15 11
-22 19 -56 19 -75z m931 84 c0 -2 -9 0 -20 6 -11 6 -20 13 -20 16 0 2 9 0 20
-6 11 -6 20 -13 20 -16z m-4502 10 c32 -9 27 -21 -9 -22 -44 -1 -49 -10 -37
-63 l11 -46 81 -6 c73 -6 268 -57 288 -76 4 -4 -52 -5 -125 -3 -89 3 -179 -1
-277 -13 -149 -18 -360 -15 -360 6 0 5 6 11 13 13 6 2 50 15 97 30 96 29 176
46 226 46 29 0 34 3 34 24 0 35 -10 56 -26 56 -36 0 14 54 56 59 3 0 15 -2 28
-5z m-4648 -11 c0 -5 -4 -14 -9 -22 -7 -10 -2 -23 14 -43 24 -29 69 -137 61
-146 -3 -2 -16 20 -29 50 -14 31 -30 59 -36 62 -8 5 -11 -70 -11 -273 0 -153
-3 -286 -6 -295 -3 -9 -12 -16 -19 -16 -11 0 -11 5 1 28 11 21 14 74 13 242 0
118 -4 233 -9 255 -6 26 -8 -51 -4 -217 3 -170 1 -259 -6 -263 -5 -3 -10 -1
-10 4 0 15 -37 14 -44 -1 -4 -7 -4 -3 -2 10 5 25 5 25 -28 12 -31 -11 -36 5
-8 27 16 13 15 14 -5 10 -17 -4 -20 -1 -16 12 3 9 11 22 16 29 7 9 6 11 -7 6
-19 -7 -21 6 -3 25 10 11 9 13 -5 8 -9 -3 -19 0 -22 9 -3 8 -2 13 2 10 4 -2
12 6 18 18 8 17 7 25 -4 36 -12 11 -13 10 -8 -8 4 -11 3 -23 -3 -26 -10 -7 -8
99 4 126 4 10 -1 24 -14 37 l-21 21 75 0 76 0 -6 38 c-19 110 -37 137 -83 125
-18 -4 -22 -1 -22 16 0 11 3 20 8 20 19 -3 33 2 27 11 -3 6 -1 10 4 10 6 0 11
5 11 10 0 6 -9 10 -19 10 -11 0 -27 3 -37 7 -13 5 -6 10 27 18 51 14 139 19
139 8z m670 -2 c0 -5 -6 -16 -14 -24 -13 -12 -12 -16 10 -26 43 -19 78 -123
55 -160 -7 -11 -12 -4 -20 27 -10 35 -26 60 -33 50 -1 -2 -5 -124 -8 -273 -5
-260 -6 -270 -25 -272 -11 -2 -14 0 -7 3 18 8 15 27 -4 20 -13 -5 -14 -4 -6 7
9 10 6 17 -9 31 -20 17 -21 17 -15 -2 4 -12 1 -22 -8 -25 -10 -4 -12 0 -8 15
4 15 2 19 -7 13 -10 -5 -11 -2 -7 13 5 15 2 22 -13 27 -20 6 -37 35 -21 35 6
0 10 -5 10 -12 0 -6 2 -9 5 -6 3 3 3 13 -1 22 -6 16 -8 16 -25 0 -25 -23 -37
-9 -14 16 10 11 13 20 7 20 -7 0 -12 -5 -12 -11 0 -6 -6 -5 -15 3 -34 31 -43
36 -50 30 -5 -4 -6 3 -3 15 4 13 0 27 -8 34 -22 18 -17 36 19 73 34 35 71 47
132 43 29 -2 30 -1 28 44 0 26 -8 57 -16 70 -8 13 -17 36 -21 50 -3 14 -17 38
-32 54 -23 25 -27 27 -36 12 -10 -18 -38 -23 -38 -8 0 6 -17 11 -37 13 -38 3
-38 3 9 8 26 3 44 1 41 -4 -4 -5 -1 -6 5 -2 11 6 13 45 2 47 -3 1 -54 5 -115
9 l-110 7 130 2 c72 1 148 6 170 10 56 12 115 13 115 2z m8578 -16 c-3 -3 -9
2 -12 12 -6 14 -5 15 5 6 7 -7 10 -15 7 -18z m69 -17 c-3 -8 -6 -5 -6 6 -1 11
2 17 5 13 3 -3 4 -12 1 -19z m-9002 -26 c6 -4 17 -16 25 -27 13 -17 11 -16
-14 3 -16 12 -32 19 -35 15 -3 -4 -15 -15 -26 -23 -15 -11 -14 -7 4 13 26 29
30 31 46 19z m-558 -34 c-3 -8 -6 -5 -6 6 -1 11 2 17 5 13 3 -3 4 -12 1 -19z
m73 7 c0 -9 -6 -12 -15 -9 -8 4 -15 10 -15 15 0 5 7 9 15 9 8 0 15 -7 15 -15z
m330 0 c-7 -9 -15 -13 -17 -11 -7 7 7 26 19 26 6 0 6 -6 -2 -15z m5788 -1 c17
-12 22 -25 22 -58 0 -49 18 -71 90 -106 106 -53 148 -109 157 -212 7 -69 -12
-124 -61 -182 -33 -39 -33 -39 -55 -20 -13 11 -37 34 -54 53 -18 19 -55 58
-83 86 -62 61 -70 76 -79 139 -5 28 -11 43 -15 36 -4 -7 -5 -20 -3 -30 3 -10
-2 -20 -11 -23 -14 -5 -15 -3 -6 13 7 12 7 21 0 25 -5 3 -10 -1 -10 -10 0 -9
-5 -13 -10 -10 -6 4 -8 11 -5 16 4 5 -1 9 -10 9 -12 0 -15 6 -10 23 7 21 6 21
-8 3 -20 -27 -57 -31 -57 -7 0 11 -4 23 -10 26 -5 3 -10 -3 -10 -15 0 -13 -5
-20 -12 -17 -8 2 -12 18 -11 37 l1 33 -24 -29 c-14 -16 -36 -51 -49 -79 -13
-27 -24 -43 -24 -34 -1 9 13 44 30 78 24 47 43 70 76 91 46 29 134 56 156 47
14 -5 11 69 -4 79 -16 10 -10 23 19 38 35 19 43 19 70 0z m3332 -31 c35 -59
60 -142 59 -192 -1 -26 -4 -35 -6 -21 -2 14 -9 43 -14 64 l-11 39 -23 -29
c-31 -37 -31 -42 0 -39 18 2 25 -2 25 -13 0 -22 -15 -44 -26 -41 -18 4 -34
-48 -32 -103 2 -31 -1 -60 -5 -64 -4 -4 -7 18 -7 49 0 54 -1 57 -25 55 -24 -2
-25 -5 -27 -78 l-2 -75 -6 80 c-3 44 -7 71 -8 60 -1 -11 -7 -27 -12 -35 -7
-10 -8 0 -4 33 5 32 3 47 -5 47 -13 0 -15 -222 -2 -255 6 -16 18 -20 52 -21
24 0 96 -4 159 -10 63 -5 136 -9 162 -9 25 0 44 -3 41 -7 -2 -5 -89 -8 -194
-8 -173 0 -191 2 -208 19 -36 36 -41 58 -41 194 l0 135 39 33 c22 19 58 46 80
61 46 31 53 61 26 125 -24 58 -17 60 15 6z m-7990 -49 c0 -28 4 -44 13 -44 9
0 9 -2 0 -8 -7 -4 -10 -28 -9 -62 3 -62 -8 -104 -27 -97 -6 2 -18 -5 -25 -17
-11 -18 -12 -6 -8 74 5 112 9 133 24 138 7 2 12 19 12 38 0 21 4 33 10 29 6
-3 10 -26 10 -51z m8097 31 c-4 -10 -18 -14 -39 -13 l-33 1 33 4 c21 3 32 10
32 20 0 9 3 14 6 10 4 -3 4 -13 1 -22z m-437 -5 c11 -7 -4 -10 -50 -10 -83 -1
-166 -28 -162 -52 2 -10 -2 -18 -7 -18 -6 0 -8 -7 -5 -15 4 -10 0 -15 -14 -15
-12 0 -24 -4 -27 -10 -3 -5 1 -10 9 -10 9 0 16 -4 16 -10 0 -13 -77 -13 -85 1
-8 12 -20 128 -14 130 2 1 72 5 154 9 83 3 155 7 160 8 6 1 17 -3 25 -8z
m-8763 -37 c-3 -10 -5 -4 -5 12 0 17 2 24 5 18 2 -7 2 -21 0 -30z m9263 12 c0
-12 -19 -12 -23 0 -4 9 -1 12 9 8 7 -3 14 -7 14 -8z m-7424 -3 c16 -10 26 -55
11 -49 -9 3 -11 -53 -9 -229 l3 -234 -33 1 c-23 1 -26 3 -10 6 21 4 22 8 22
117 0 141 -11 297 -20 291 -4 -2 -16 5 -28 15 -13 12 -35 20 -57 20 -23 0 -35
5 -35 14 0 14 42 26 92 26 16 0 27 4 24 9 -4 5 0 12 6 14 18 8 22 8 34 -1z
m-167 -79 c-2 -45 -2 -46 -8 -13 -5 32 -9 35 -46 39 l-40 5 45 6 c25 4 46 8
48 8 1 1 1 -19 1 -45z m6301 12 c0 -8 -4 -17 -10 -20 -6 -4 -10 5 -10 20 0 15
4 24 10 20 6 -3 10 -12 10 -20z m1222 0 c3 -13 2 -22 -2 -20 -11 7 -20 45 -10
45 4 0 10 -11 12 -25z m-1252 -28 c0 -24 -3 -28 -10 -17 -13 20 -13 63 0 55 6
-3 10 -21 10 -38z m1392 -11 c27 -15 55 -40 63 -56 21 -41 19 -51 -3 -15 -12
19 -44 43 -85 63 -37 19 -67 37 -67 41 0 17 14 20 29 8 9 -8 37 -26 63 -41z
m-5382 14 c77 -39 90 -38 90 1 0 25 3 30 17 24 10 -3 85 -9 168 -12 l150 -6 0
-161 c-1 -233 -11 -246 -188 -246 -151 0 -151 -1 -151 171 l-1 134 31 -3 c22
-2 33 2 38 13 3 9 2 14 -3 11 -4 -3 -55 12 -111 34 -58 23 -111 38 -121 35
-12 -4 -19 -1 -19 8 0 36 24 35 100 -3z m1047 13 c3 -7 -3 -10 -14 -7 -10 2
-62 -11 -115 -30 -59 -20 -98 -29 -98 -22 0 11 184 75 209 73 8 -1 16 -7 18
-14z m3043 -9 c0 -3 -9 -18 -21 -32 -19 -25 -20 -27 -3 -31 10 -2 24 5 31 15
12 17 13 17 13 -3 0 -13 8 -24 19 -28 28 -9 93 -62 113 -93 26 -39 22 -49 -7
-18 -14 15 -35 26 -50 26 -32 0 -102 -63 -145 -130 -37 -57 -114 -108 -136
-89 -22 18 -61 94 -68 132 -5 25 -2 38 10 47 20 17 52 82 48 95 -2 6 9 10 25
11 47 2 105 36 120 72 9 19 22 32 33 32 10 0 18 -3 18 -6z m-7120 -34 c0 -30
-1 -30 -52 -30 -62 0 -104 19 -48 21 l35 1 -30 8 c-16 4 -69 8 -117 9 -51 1
-88 5 -88 11 0 6 57 10 150 10 l150 0 0 -30z m2335 11 c56 -7 58 -8 25 -14
-19 -3 -57 -9 -85 -13 -42 -5 -46 -8 -27 -15 20 -7 21 -11 10 -29 -9 -13 -24
-20 -45 -20 -49 0 -40 -20 10 -21 39 -1 40 -2 12 -9 -28 -7 -26 -8 15 -9 59
-2 36 -18 -40 -27 l-55 -7 45 -13 c25 -8 56 -14 70 -15 23 0 23 -1 5 -9 -11
-5 -38 -9 -60 -11 -39 -1 -38 -2 13 -9 72 -11 77 -20 12 -20 -63 0 -61 -8 7
-20 47 -7 46 -8 -32 -10 l-80 -3 50 -9 c28 -5 69 -11 92 -14 49 -7 48 -24 0
-25 -18 0 -27 -3 -20 -5 7 -3 9 -12 6 -20 -3 -10 2 -14 18 -14 38 0 8 -19 -46
-29 -28 -5 -74 -11 -103 -12 l-54 -3 -3 50 c-2 34 2 54 12 67 10 10 12 17 5
17 -8 0 -12 26 -11 80 1 48 5 80 11 80 7 0 7 4 0 13 -8 9 -11 90 -3 105 2 5
188 0 246 -7z m4715 -16 c-7 -9 -15 -13 -19 -10 -3 3 1 10 9 15 21 14 24 12
10 -5z m-7277 -22 c-7 -2 -21 -2 -30 0 -10 3 -4 5 12 5 17 0 24 -2 18 -5z
m316 -129 c-1 -71 -6 -120 -10 -112 -13 20 -6 238 8 238 2 0 3 -57 2 -126z
m7471 96 c0 -6 8 -10 18 -10 11 0 19 -7 19 -17 1 -30 -30 -123 -41 -123 -25
-1 -60 -44 -72 -88 -11 -45 -12 -46 -22 -22 -9 23 -10 21 -17 -23 -12 -79 -25
-40 -31 94 -7 151 -1 174 55 189 22 6 43 15 46 20 7 12 45 -6 45 -20z m152 -7
c-2 -23 1 -33 11 -33 14 0 10 -47 -10 -115 l-9 -30 -9 35 c-8 32 -9 30 -15
-35 -5 -65 -6 -67 -12 -30 -3 22 -13 81 -22 130 -21 124 -23 117 27 113 41 -3
42 -4 39 -35z m-7713 -130 c-1 -87 -4 -169 -8 -183 l-7 -25 -9 25 c-4 14 -11
27 -16 30 -10 7 -40 224 -31 228 4 1 6 20 4 42 -4 40 -4 40 32 40 l36 0 -1
-157z m-701 128 c-7 -11 -16 -17 -21 -14 -6 4 -7 -6 -3 -23 7 -28 7 -28 -11
-11 -17 16 -16 18 7 41 30 30 45 33 28 7z m4600 -84 c4 -105 -6 -207 -19 -207
-14 0 -11 274 3 288 7 7 12 12 13 12 0 0 1 -42 3 -93z m1605 55 c16 -7 32 -12
37 -12 12 0 20 -27 19 -63 -1 -20 -3 -25 -6 -12 -10 45 -15 51 -23 30 -5 -11
-9 -14 -9 -7 -1 6 -12 12 -25 12 -16 0 -23 -5 -22 -16 0 -9 -5 -19 -11 -21 -8
-3 -13 4 -13 16 0 18 -7 21 -45 23 -25 0 -51 1 -57 2 -8 1 -14 -14 -16 -36
l-3 -38 81 0 c100 0 120 -9 120 -55 0 -34 -1 -35 -37 -35 -21 0 -53 -9 -71
-20 -18 -11 -45 -20 -61 -20 l-28 0 -7 105 c-4 62 -3 113 3 123 5 9 32 21 63
28 60 12 71 12 111 -4z m237 8 c12 -8 10 -10 -10 -10 -14 0 -32 5 -40 10 -12
8 -10 10 10 10 14 0 32 -5 40 -10z m275 -35 c-21 -18 -31 -21 -37 -12 -17 26
-8 37 30 37 l37 -1 -30 -24z m2163 0 c-3 -3 -9 2 -12 12 -6 14 -5 15 5 6 7 -7
10 -15 7 -18z m319 3 c-3 -8 -6 -5 -6 6 -1 11 2 17 5 13 3 -3 4 -12 1 -19z
m-2584 -15 c4 -2 7 -26 7 -53 l0 -48 -32 30 c-30 28 -37 30 -89 25 -31 -3 -69
-13 -84 -23 -23 -15 -26 -22 -20 -51 3 -19 3 -54 -1 -78 -5 -35 -10 -45 -25
-45 -18 0 -19 9 -19 124 0 110 2 125 18 130 19 5 233 -4 245 -11z m-6663 -28
c0 -8 -2 -15 -4 -15 -2 0 -6 7 -10 15 -3 8 -1 15 4 15 6 0 10 -7 10 -15z m60
11 c0 -9 -30 -14 -35 -6 -4 6 3 10 14 10 12 0 21 -2 21 -4z m-95 -65 c3 -5 1
-12 -5 -16 -5 -3 -10 1 -10 9 0 18 6 21 15 7z m105 -20 c-6 -12 -15 -19 -20
-16 -5 3 -2 14 7 25 21 24 28 19 13 -9z m8857 -58 c-2 -16 -4 -3 -4 27 0 30 2
43 4 28 2 -16 2 -40 0 -55z m-8804 24 c-4 -6 -10 -2 -14 9 -12 31 -9 40 6 20
8 -10 11 -24 8 -29z m8764 1 c-3 -8 -6 -5 -6 6 -1 11 2 17 5 13 3 -3 4 -12 1
-19z m-1610 -35 c-3 -10 -5 -2 -5 17 0 19 2 27 5 18 2 -10 2 -26 0 -35z
m-7125 5 c-9 -9 -12 -7 -12 12 0 19 3 21 12 12 9 -9 9 -15 0 -24z m1155 10
c-3 -8 -6 -5 -6 6 -1 11 2 17 5 13 3 -3 4 -12 1 -19z m7530 -20 c-3 -7 -5 -2
-5 12 0 14 2 19 5 13 2 -7 2 -19 0 -25z m50 -10 c-3 -8 -6 -5 -6 6 -1 11 2 17
5 13 3 -3 4 -12 1 -19z m-4061 -53 l2 -25 -107 2 -106 2 93 3 c70 3 92 7 92
18 0 7 6 16 13 18 6 3 12 6 12 6 0 1 1 -10 1 -24z m74 6 c0 -13 -9 -20 -30
-23 -16 -3 -30 -1 -30 4 0 4 11 8 25 8 16 0 25 6 25 15 0 8 2 15 5 15 3 0 5
-8 5 -19z m-1270 -1 c0 -14 68 -12 72 2 3 9 6 9 12 0 7 -12 -2 -15 -78 -27
-52 -8 -38 -19 23 -16 27 1 52 -3 56 -9 3 -5 1 -10 -5 -10 -7 0 -9 -7 -6 -16
3 -9 2 -12 -5 -9 -6 4 -8 13 -5 21 4 9 -2 14 -17 14 -18 0 -19 -2 -7 -10 11
-8 7 -9 -15 -4 -16 3 -36 7 -42 9 -14 5 -36 -29 -26 -39 3 -3 43 -6 87 -7 45
-1 106 -4 136 -8 31 -4 -38 -6 -160 -6 -118 0 -191 1 -162 3 35 2 55 8 59 17
3 8 9 12 14 9 5 -3 9 4 9 15 0 12 5 21 10 21 6 0 10 5 10 10 0 6 -44 11 -107
12 l-108 2 108 3 c86 3 107 7 107 18 0 8 9 15 20 15 11 0 20 -4 20 -10z
m-3393 -26 c-3 -3 -12 -4 -19 -1 -8 3 -5 6 6 6 11 1 17 -2 13 -5z m3606 -1
c-23 -2 -64 -2 -90 0 -26 2 -7 3 42 3 50 0 71 -1 48 -3z m250 0 c-29 -2 -78
-2 -110 0 -32 2 -8 3 52 3 61 0 87 -1 58 -3z m180 0 c-13 -2 -35 -2 -50 0 -16
2 -5 4 22 4 28 0 40 -2 28 -4z m150 0 c-7 -2 -19 -2 -25 0 -7 3 -2 5 12 5 14
0 19 -2 13 -5z m640 0 c-23 -2 -64 -2 -90 0 -26 2 -7 3 42 3 50 0 71 -1 48 -3z
m3635 0 c-10 -2 -28 -2 -40 0 -13 2 -5 4 17 4 22 1 32 -1 23 -4z m-8925 -10
c-18 -2 -48 -2 -65 0 -18 2 -4 4 32 4 36 0 50 -2 33 -4z m5057 -18 c8 5 7 0
-2 -14 -16 -25 -29 -28 -22 -3 5 14 3 14 -10 -2 -9 -11 -16 -23 -16 -28 0 -4
57 -9 128 -11 92 -2 78 -3 -53 -3 -99 0 -161 1 -137 3 23 2 42 9 42 15 0 20
43 59 51 47 4 -6 12 -8 19 -4z m-572 -12 c-2 -10 -11 -19 -21 -21 -13 -3 -15
1 -10 15 6 16 4 16 -17 -2 -21 -18 -23 -19 -17 -2 5 13 3 17 -5 15 -29 -10
-12 -33 27 -39 35 -4 31 -6 -37 -13 -42 -5 -82 -6 -90 -3 -7 3 9 6 36 6 38 1
47 4 42 16 -11 31 5 45 51 45 37 0 44 -3 41 -17z m661 -1 c9 -16 6 -19 -19
-20 -31 -1 -46 11 -35 28 10 17 44 11 54 -8z m-551 -5 c6 3 12 0 12 -6 0 -6
-18 -11 -41 -11 -35 0 -40 2 -29 15 8 10 18 12 29 6 9 -5 22 -6 29 -4z m-15
-34 c-18 -2 -48 -2 -65 0 -18 2 -4 4 32 4 36 0 50 -2 33 -4z m-950 -20 c-13
-2 -33 -2 -45 0 -13 2 -3 4 22 4 25 0 35 -2 23 -4z m595 0 c-21 -2 -57 -2 -80
0 -24 2 -7 4 37 4 44 0 63 -2 43 -4z m550 0 c-26 -2 -71 -2 -100 0 -29 2 -8 3
47 3 55 0 79 -1 53 -3z"/>
<path d="M7027 6067 c-11 -29 -9 -43 4 -30 6 6 9 19 7 29 -3 18 -4 18 -11 1z"/>
<path d="M3802 4910 c0 -14 2 -19 5 -12 2 6 2 18 0 25 -3 6 -5 1 -5 -13z"/>
<path d="M5678 4603 c7 -3 16 -2 19 1 4 3 -2 6 -13 5 -11 0 -14 -3 -6 -6z"/>
<path d="M4078 4583 c12 -2 30 -2 40 0 9 3 -1 5 -23 4 -22 0 -30 -2 -17 -4z"/>
<path d="M7796 4737 c3 -10 9 -15 12 -12 3 3 0 11 -7 18 -10 9 -11 8 -5 -6z"/>
<path d="M7793 4635 c0 -8 4 -12 9 -9 4 3 8 9 8 15 0 5 -4 9 -8 9 -5 0 -9 -7
-9 -15z"/>
<path d="M7808 4608 c-14 -14 -15 -18 -4 -18 8 0 17 7 20 16 9 23 4 24 -16 2z"/>
<path d="M1991 4664 c0 -11 3 -14 6 -6 3 7 2 16 -1 19 -3 4 -6 -2 -5 -13z"/>
<path d="M3107 4053 c-4 -3 -7 -21 -7 -40 0 -32 28 -73 50 -73 37 0 65 81 38
108 -13 13 -70 17 -81 5z"/>
<path d="M2899 3625 c-1 -3 -3 -9 -4 -15 -1 -5 -3 -14 -4 -18 0 -5 -11 -8 -23
-8 -22 1 -28 -13 -28 -74 0 -8 0 -27 0 -42 0 -20 5 -28 17 -28 14 0 15 -2 5
-9 -15 -9 0 -46 63 -151 42 -69 85 -196 85 -248 0 -22 -7 -56 -15 -75 -36 -87
-5 -146 70 -134 44 7 94 45 94 72 1 11 -23 52 -53 92 -74 99 -98 165 -102 283
-3 79 -2 89 7 60 15 -50 26 -57 40 -26 10 22 9 48 -6 143 -15 100 -22 120 -47
149 -23 26 -38 34 -64 34 -19 0 -35 -2 -35 -5z m101 -62 c0 -32 -5 -28 -14 10
-4 19 -3 26 4 22 5 -3 10 -18 10 -32z m-130 -37 c0 -2 -7 -7 -16 -10 -8 -3
-12 -2 -9 4 6 10 25 14 25 6z"/>
<path d="M1850 3225 c0 -5 5 -17 10 -25 5 -8 10 -10 10 -5 0 6 -5 17 -10 25
-5 8 -10 11 -10 5z"/>
<path d="M1868 3125 c5 -11 12 -27 15 -35 5 -13 6 -13 6 1 1 8 -6 24 -15 35
-15 19 -15 19 -6 -1z"/>
<path d="M2061 2933 c-1 -141 3 -214 10 -218 6 -4 12 -5 13 -4 2 2 -2 101 -9
219 l-12 215 -2 -212z"/>
<path d="M8104 4016 c-3 -13 -1 -34 6 -46 21 -40 52 8 34 54 -9 24 -33 19 -40
-8z"/>
<path d="M8497 4023 c-4 -3 -7 -17 -7 -30 0 -33 24 -24 28 10 3 26 -7 35 -21
20z"/>
<path d="M8197 3940 c-24 -55 -47 -381 -31 -424 3 -9 21 -23 39 -32 18 -8 41
-24 53 -34 11 -10 23 -16 28 -12 4 4 4 1 -1 -7 -14 -24 18 -32 41 -10 17 16
21 29 17 62 -2 23 -8 116 -12 207 l-8 165 -2 -163 -1 -163 -22 7 c-52 15 -60
37 -70 183 -11 161 -22 242 -31 221z"/>
<path d="M7423 3775 c0 -27 2 -38 4 -22 2 15 2 37 0 50 -2 12 -4 0 -4 -28z"/>
<path d="M7418 3620 c-4 -14 -8 -104 -8 -201 l0 -177 35 -4 c19 -2 35 0 35 4
0 4 -6 8 -14 8 -24 0 -29 31 -35 215 -4 103 -9 169 -13 155z"/>
<path d="M8090 3621 c0 -23 14 -41 31 -41 23 0 26 35 3 44 -22 9 -34 7 -34 -3z"/>
<path d="M8047 3521 c-4 -17 -3 -21 5 -13 5 5 8 16 6 23 -3 8 -7 3 -11 -10z"/>
<path d="M8532 3480 c0 -19 2 -27 5 -17 2 9 2 25 0 35 -3 9 -5 1 -5 -18z"/>
<path d="M6872 3380 c13 -21 25 -34 29 -29 8 13 29 -60 29 -99 0 -17 -4 -34
-10 -37 -5 -3 -10 -11 -10 -18 0 -6 7 -2 15 9 8 10 15 36 15 56 0 47 -29 125
-41 107 -5 -9 -10 -5 -14 13 -4 15 -13 29 -21 32 -10 4 -7 -7 8 -34z"/>
<path d="M7277 3363 c12 -26 23 -64 23 -85 0 -36 1 -38 33 -38 32 0 32 0 34
53 2 43 1 49 -10 37 -19 -24 -45 -12 -67 30 -11 21 -24 41 -28 44 -5 3 2 -16
15 -41z"/>
<path d="M7072 3255 c0 -16 2 -22 5 -12 2 9 2 23 0 30 -3 6 -5 -1 -5 -18z"/>
<path d="M7550 3197 c0 -20 -4 -25 -16 -20 -13 5 -15 0 -12 -23 2 -22 -1 -29
-14 -29 -9 0 -20 -4 -25 -9 -4 -4 3 -7 17 -5 14 2 35 -3 47 -9 23 -13 23 -13
16 50 -6 66 -13 89 -13 45z"/>
<path d="M1040 3340 c0 -6 7 -10 15 -10 8 0 15 2 15 4 0 2 -7 6 -15 10 -8 3
-15 1 -15 -4z"/>
<path d="M1123 3160 c0 -36 2 -50 4 -32 2 17 2 47 0 65 -2 17 -4 3 -4 -33z"/>
<path d="M980 3040 c0 -5 -7 -10 -15 -10 -8 0 -15 -7 -15 -15 0 -13 4 -12 22
5 12 11 28 18 36 15 7 -2 10 0 7 5 -8 13 -35 13 -35 0z"/>
<path d="M945 2960 c-3 -5 -1 -19 6 -31 13 -25 30 -9 22 22 -6 21 -18 25 -28
9z"/>
<path d="M1015 2940 c3 -5 8 -10 11 -10 2 0 4 5 4 10 0 6 -5 10 -11 10 -5 0
-7 -4 -4 -10z"/>
<path d="M990 2919 c0 -5 5 -7 10 -4 6 3 10 8 10 11 0 2 -4 4 -10 4 -5 0 -10
-5 -10 -11z"/>
<path d="M6384 3276 c-17 -13 -17 -15 -1 -30 20 -20 22 -45 6 -79 -13 -30 3
-67 29 -67 14 0 16 8 14 55 -3 35 0 55 7 55 12 0 15 39 3 56 -13 19 -39 23
-58 10z"/>
<path d="M6320 3129 c0 -5 5 -7 10 -4 6 3 10 8 10 11 0 2 -4 4 -10 4 -5 0 -10
-5 -10 -11z"/>
<path d="M6355 3111 c-4 -13 -4 -25 -1 -28 3 -4 6 2 7 13 0 18 1 18 9 -1 6
-13 9 -15 9 -5 0 8 -3 21 -8 29 -7 11 -10 9 -16 -8z"/>
<path d="M2393 3163 c9 -2 25 -2 35 0 9 3 1 5 -18 5 -19 0 -27 -2 -17 -5z"/>
<path d="M5730 2656 c0 -2 7 -6 15 -10 8 -3 15 -1 15 4 0 6 -7 10 -15 10 -8 0
-15 -2 -15 -4z"/>
<path d="M2480 7235 c0 -2 28 -23 63 -46 52 -36 186 -157 259 -234 66 -70 188
-220 188 -232 0 -7 5 -13 10 -13 6 0 10 -6 10 -13 0 -7 8 -22 18 -33 30 -32
72 -122 72 -153 0 -17 9 -38 19 -48 11 -10 22 -34 26 -54 4 -20 22 -61 41 -90
18 -30 39 -65 46 -79 7 -14 19 -31 26 -39 7 -7 16 -26 19 -42 4 -20 13 -31 29
-35 28 -7 31 -21 7 -27 -10 -3 18 -6 62 -7 44 -1 118 -5 165 -9 l85 -8 -65 -2
c-75 -1 -143 -18 -135 -32 4 -5 16 -9 28 -10 21 0 21 -1 2 -8 -11 -5 -42 -11
-69 -15 -31 -5 -45 -11 -37 -16 11 -6 11 -9 0 -13 -8 -3 -3 -6 11 -6 14 -1 21
-5 15 -9 -5 -4 -11 -15 -11 -24 -1 -14 6 -18 29 -18 l31 0 -23 -21 c-19 -18
-22 -29 -18 -57 4 -19 8 -36 11 -39 2 -2 26 -8 53 -13 26 -4 41 -8 33 -9 -11
-1 -16 -16 -18 -57 -1 -31 -5 -60 -8 -65 -2 -4 -31 -11 -64 -15 -63 -7 -68
-12 -51 -58 9 -21 8 -24 -10 -21 -10 2 -19 -1 -19 -6 0 -6 -8 -6 -20 1 -18 10
-20 8 -20 -24 0 -23 6 -36 18 -41 31 -14 225 -18 268 -6 52 14 51 7 44 281 -4
168 -2 207 9 216 8 7 11 16 6 24 -5 9 -4 11 3 6 15 -9 16 -33 2 -38 -7 -2 -7
-20 0 -57 13 -71 13 -406 0 -432 -10 -18 -23 -19 -195 -19 l-185 0 -2 38 c-1
20 -2 86 -2 146 -1 78 -5 110 -13 113 -7 3 -13 13 -13 24 0 10 -4 19 -10 19
-6 0 -10 38 -11 93 -1 50 -4 83 -6 72 -3 -11 -10 -24 -17 -28 -8 -6 -8 -10 2
-14 20 -8 14 -20 -17 -31 -36 -13 -39 -10 -35 36 l3 37 -57 -1 c-122 -1 -134
-3 -139 -23 -3 -13 -19 -22 -51 -29 l-47 -9 30 -14 c29 -13 30 -16 30 -79 0
-72 4 -77 65 -81 23 -1 13 -4 -30 -9 -35 -4 -66 -12 -68 -19 -2 -6 -8 -9 -13
-5 -5 3 -9 -29 -9 -75 0 -44 -5 -83 -10 -86 -7 -4 -7 -13 0 -26 6 -11 8 -23 5
-28 -3 -5 56 -10 130 -10 l136 -2 -3 201 c-2 110 0 200 5 200 4 0 7 -92 7
-205 l0 -205 -102 -2 c-150 -3 -178 -4 -184 -11 -4 -3 293 -5 659 -5 l665 1
-4 57 c-3 31 0 70 6 86 9 23 8 31 -5 40 -12 9 -12 13 -3 16 19 8 54 -7 40 -16
-8 -5 -12 -38 -12 -94 l0 -87 489 0 c269 0 493 3 497 8 4 4 -24 7 -62 7 -38 0
-64 4 -57 8 7 5 9 13 3 21 -5 9 -3 19 6 28 18 18 18 29 0 36 -9 4 -12 0 -9
-13 6 -22 -16 -37 -28 -19 -6 9 -9 10 -9 2 0 -7 6 -16 14 -20 12 -7 12 -11 2
-25 -12 -16 -80 -25 -153 -20 -28 2 -40 43 -49 172 -4 52 -11 100 -16 107 -5
7 -7 17 -4 22 4 6 -7 8 -29 4 -24 -4 -35 -2 -35 6 0 7 -4 10 -9 7 -4 -3 -11
-63 -13 -133 -3 -71 -11 -140 -18 -155 l-13 -28 -173 0 c-121 0 -175 4 -180
12 -12 18 -18 408 -7 408 5 0 9 14 8 30 l-2 30 116 -2 c102 -1 108 -2 51 -8
l-65 -7 60 -3 c56 -3 57 -4 15 -7 -85 -6 -85 -6 -88 -73 l-3 -60 118 -2 c65
-1 101 -3 80 -5 -41 -5 -60 -29 -72 -96 -7 -34 -10 -37 -44 -38 -54 -2 -94
-12 -99 -26 -2 -7 3 -13 12 -13 9 0 16 -8 16 -20 0 -11 -4 -20 -10 -20 -5 0
-10 -20 -10 -45 l0 -45 124 0 c123 0 125 0 145 26 23 30 27 96 14 254 -5 64
-9 77 -14 55 l-7 -30 -1 28 c-1 20 -8 30 -28 38 -66 25 -63 49 11 89 25 13 45
29 43 35 -7 20 -348 4 -375 -18 -11 -8 -12 -5 -6 19 7 26 6 28 -9 16 -28 -23
-43 5 -49 86 -4 54 -2 77 8 87 8 7 14 34 14 58 0 25 5 47 11 49 11 4 26 59 36
133 3 22 10 43 16 47 6 3 11 14 12 25 9 111 84 266 175 364 8 9 35 40 60 69
70 82 262 268 311 301 l44 29 -1222 0 c-673 0 -1223 -2 -1223 -5z m1594 -1192
c-3 -32 -1 -101 6 -153 6 -52 13 -117 15 -145 3 -27 7 -64 10 -81 7 -40 -11
-48 -59 -26 -34 15 -36 19 -35 62 1 25 5 59 10 75 5 19 6 6 2 -37 -5 -62 -4
-68 13 -68 50 1 52 16 23 274 -9 88 -4 156 12 156 5 0 6 -26 3 -57z m-444 2
c0 -8 -7 -15 -16 -15 -14 0 -14 3 -4 15 7 8 14 15 16 15 2 0 4 -7 4 -15z m407
-47 c-2 -13 -4 -3 -4 22 0 25 2 35 4 23 2 -13 2 -33 0 -45z m-940 -70 c-3 -7
-5 -2 -5 12 0 14 2 19 5 13 2 -7 2 -19 0 -25z m1203 -3 c0 -8 -4 -15 -10 -15
-5 0 -7 7 -4 15 4 8 8 15 10 15 2 0 4 -7 4 -15z m-6 -40 c-4 -8 -8 -15 -10
-15 -2 0 -4 7 -4 15 0 8 4 15 10 15 5 0 7 -7 4 -15z m-1177 -47 c-3 -8 -6 -5
-6 6 -1 11 2 17 5 13 3 -3 4 -12 1 -19z m1051 -165 c-10 -2 -26 -2 -35 0 -10
3 -2 5 17 5 19 0 27 -2 18 -5z m-156 -42 c-6 -27 -10 -105 -5 -86 l6 20 8 -20
c8 -17 9 -15 5 8 -2 15 1 30 6 33 18 11 20 -5 8 -61 -10 -48 -14 -54 -26 -44
-12 10 -15 10 -12 -2 2 -8 -4 -14 -12 -14 -11 0 -16 16 -20 65 -3 36 -9 71
-13 78 -12 18 12 44 37 40 12 -2 20 -9 18 -17z"/>
<path d="M3215 6080 c-3 -6 1 -7 9 -4 18 7 21 14 7 14 -6 0 -13 -4 -16 -10z"/>
<path d="M7948 6053 c7 -3 16 -2 19 1 4 3 -2 6 -13 5 -11 0 -14 -3 -6 -6z"/>
<path d="M4510 6021 c0 -5 -8 -12 -17 -14 -10 -3 20 -5 65 -6 63 -1 83 2 80
12 -5 15 -128 23 -128 8z"/>
<path d="M5048 6023 c-10 -2 -18 -8 -18 -13 0 -5 8 -10 18 -12 22 -6 -50 -27
-98 -30 -26 -1 -22 -3 20 -8 l55 -7 -57 -1 c-32 -1 -58 -6 -58 -11 0 -25 275
-15 291 11 5 8 4 17 -4 23 -6 6 -12 19 -12 30 0 18 -7 20 -60 22 -33 0 -68 -1
-77 -4z"/>
<path d="M4701 5991 c-1 -20 -8 -39 -18 -47 -16 -12 -16 -13 -1 -14 20 0 38
48 27 75 -6 16 -8 13 -8 -14z"/>
<path d="M3248 5983 c13 -3 19 -9 16 -15 -4 -7 -2 -8 5 -4 17 11 3 26 -22 25
-22 -2 -22 -2 1 -6z"/>
<path d="M1820 5940 c0 -5 5 -10 10 -10 6 0 10 5 10 10 0 6 -4 10 -10 10 -5 0
-10 -4 -10 -10z"/>
<path d="M5538 5933 c7 -3 16 -2 19 1 4 3 -2 6 -13 5 -11 0 -14 -3 -6 -6z"/>
<path d="M5070 5915 c-52 -5 -105 -16 -118 -23 -35 -20 -24 -45 23 -54 44 -8
165 -10 165 -4 0 3 -4 16 -10 30 -9 24 -7 27 22 39 49 20 23 24 -82 12z"/>
<path d="M5618 5923 c6 -2 18 -2 25 0 6 3 1 5 -13 5 -14 0 -19 -2 -12 -5z"/>
<path d="M2750 5900 c-8 -5 -10 -10 -5 -10 6 0 17 5 25 10 8 5 11 10 5 10 -5
0 -17 -5 -25 -10z"/>
<path d="M5195 5895 c4 -11 11 -36 16 -55 8 -33 8 -33 4 9 -2 24 -9 49 -16 55
-9 8 -10 6 -4 -9z"/>
<path d="M5570 5891 c0 -4 -21 -15 -47 -24 l-48 -16 40 -2 40 -1 -51 -9 c-28
-4 -61 -12 -74 -17 -20 -7 -13 -10 40 -17 l65 -8 -40 -9 c-45 -10 -70 -28 -39
-29 17 0 17 -1 -3 -9 -51 -20 -21 -30 91 -30 105 0 114 1 119 20 4 15 0 20
-16 20 -20 1 -21 2 -4 14 9 7 17 18 17 23 0 6 9 13 20 16 23 6 27 35 5 43 -8
4 -15 12 -15 19 0 7 -7 16 -16 19 -24 9 -84 7 -84 -3z m117 -57 c-3 -3 -12 -4
-19 -1 -8 3 -5 6 6 6 11 1 17 -2 13 -5z"/>
<path d="M4815 5859 c-4 -6 -5 -12 -2 -15 2 -3 7 2 10 11 7 17 1 20 -8 4z"/>
<path d="M1581 5807 c0 -12 3 -16 6 -9 8 21 21 13 26 -15 4 -27 4 -27 6 3 1
24 -4 33 -19 37 -16 4 -20 0 -19 -16z"/>
<path d="M1662 5810 c0 -14 2 -19 5 -12 2 6 2 18 0 25 -3 6 -5 1 -5 -13z"/>
<path d="M1682 5810 c0 -14 2 -19 5 -12 2 6 2 18 0 25 -3 6 -5 1 -5 -13z"/>
<path d="M1701 5791 l1 -36 8 30 c7 28 8 29 10 5 1 -21 3 -22 9 -7 4 10 11 18
16 17 5 -1 11 3 13 8 1 5 -11 12 -28 14 -29 4 -30 3 -29 -31z"/>
<path d="M1773 5795 c0 -22 2 -30 4 -17 2 12 2 30 0 40 -3 9 -5 -1 -4 -23z"/>
<path d="M5360 5819 c0 -5 5 -7 10 -4 6 3 10 8 10 11 0 2 -4 4 -10 4 -5 0 -10
-5 -10 -11z"/>
<path d="M5853 5811 c-2 -18 0 -19 18 -3 23 20 24 22 1 22 -10 0 -18 -8 -19
-19z"/>
<path d="M8085 5820 c3 -5 10 -10 16 -10 5 0 9 5 9 10 0 6 -7 10 -16 10 -8 0
-12 -4 -9 -10z"/>
<path d="M1630 5804 c0 -8 5 -12 10 -9 6 3 10 10 10 16 0 5 -4 9 -10 9 -5 0
-10 -7 -10 -16z"/>
<path d="M1791 5783 c0 -31 2 -34 9 -18 12 28 12 55 0 55 -5 0 -10 -17 -9 -37z"/>
<path d="M1820 5811 c0 -5 3 -17 6 -26 5 -13 8 -14 15 -3 13 20 11 38 -6 38
-8 0 -15 -4 -15 -9z"/>
<path d="M1862 5795 c0 -16 2 -22 5 -12 2 9 2 23 0 30 -3 6 -5 -1 -5 -18z"/>
<path d="M5367 5792 c-11 -12 -17 -37 -18 -73 0 -39 -3 -49 -9 -34 -8 19 -9
19 -9 -2 -1 -17 -5 -21 -18 -16 -21 8 -53 40 -53 53 0 6 -7 10 -15 10 -8 0
-15 9 -15 19 0 11 -3 22 -7 24 -5 3 -8 -45 -8 -106 0 -62 -3 -136 -7 -164 l-7
-53 87 0 88 0 -7 58 c-4 31 -8 105 -8 164 -1 100 1 108 21 122 12 9 18 16 12
16 -6 0 -18 -8 -27 -18z"/>
<path d="M8065 5800 c3 -5 8 -10 11 -10 2 0 4 5 4 10 0 6 -5 10 -11 10 -5 0
-7 -4 -4 -10z"/>
<path d="M2500 5765 c0 -8 5 -15 10 -15 6 0 10 7 10 15 0 8 -4 15 -10 15 -5 0
-10 -7 -10 -15z"/>
<path d="M5681 5615 l0 -165 96 0 c87 0 94 1 87 18 -5 9 -11 85 -14 167 -3 83
-7 137 -8 120 l-3 -30 -22 25 c-25 28 -80 39 -103 20 -10 -9 -14 -9 -14 -1 0
6 -4 11 -10 11 -6 0 -10 -62 -9 -165z"/>
<path d="M8043 5757 c4 -10 7 -24 7 -30 0 -8 3 -8 11 0 9 9 7 16 -7 30 -17 17
-18 17 -11 0z"/>
<path d="M5115 5751 c-3 -6 -16 -11 -28 -11 -22 -1 -22 -1 -3 -15 19 -14 19
-15 -6 -15 -29 0 -46 -15 -26 -23 7 -3 3 -6 -9 -6 -12 -1 -24 -5 -27 -9 -3 -5
8 -7 23 -4 17 2 32 -1 36 -9 6 -8 4 -11 -6 -7 -8 3 -23 2 -34 -3 -15 -6 -16
-8 -4 -8 23 -1 32 -51 10 -51 -13 0 -13 -2 -2 -9 15 -10 24 -61 11 -61 -4 0
-6 -9 -3 -20 7 -25 51 -27 94 -5 27 14 28 17 14 31 -11 12 -12 20 -5 35 6 11
8 25 4 31 -4 6 -3 8 3 5 5 -4 10 7 10 24 0 20 -4 28 -13 25 -8 -3 -16 -1 -19
4 -3 5 4 11 15 15 15 5 20 15 20 45 0 21 -5 42 -12 46 -8 5 -9 2 -4 -11 7 -18
6 -18 -13 -1 -12 11 -21 14 -26 7z m35 -51 c0 -5 -5 -10 -11 -10 -5 0 -7 5 -4
10 3 6 8 10 11 10 2 0 4 -4 4 -10z m-17 -94 c4 -10 1 -13 -8 -9 -8 3 -12 9 -9
14 7 12 11 11 17 -5z"/>
<path d="M2140 5715 c0 -33 2 -35 35 -35 28 0 35 4 35 19 0 37 -12 51 -41 51
-26 0 -29 -3 -29 -35z"/>
<path d="M4333 5734 c-14 -14 -14 -66 -1 -58 5 3 6 9 3 14 -3 4 0 10 6 12 6 2
9 13 7 25 -2 17 -5 19 -15 7z"/>
<path d="M2468 5713 c23 -2 42 -6 42 -8 0 -3 -9 -19 -20 -37 -11 -18 -20 -41
-20 -50 0 -9 -7 -23 -15 -31 -12 -13 -12 -16 7 -20 11 -3 34 -3 49 0 18 3 29
1 29 -5 0 -6 -19 -12 -42 -14 -34 -2 -42 -7 -44 -25 -3 -20 1 -23 30 -23 19 0
36 -4 38 -10 2 -6 9 -6 18 0 11 7 14 32 14 112 -1 64 3 106 10 110 6 4 -23 7
-64 6 -47 -1 -59 -3 -32 -5z"/>
<path d="M2271 5699 c-1 -20 -49 -65 -78 -74 -19 -5 -27 0 -44 29 -12 20 -23
36 -24 36 -2 0 -4 -35 -3 -78 1 -81 -15 -131 -49 -151 -14 -8 -8 -10 28 -11
86 0 230 13 218 21 -6 4 -15 27 -18 50 -8 50 0 101 13 81 14 -24 24 -12 20 25
-5 43 -4 40 -29 45 -11 1 -23 12 -27 23 -4 14 -6 15 -7 4z"/>
<path d="M2567 5668 c12 -65 9 -191 -4 -195 -7 -3 -13 -9 -13 -14 0 -12 177
-12 185 1 3 5 3 59 -1 119 -7 120 -2 113 -74 92 -55 -17 -80 -14 -80 9 0 11
-4 20 -9 20 -5 0 -7 -15 -4 -32z"/>
<path d="M5553 5683 c-2 -26 -7 -46 -16 -60 -4 -6 -3 -15 3 -18 7 -4 7 -11 2
-18 -5 -7 -15 -30 -22 -52 -14 -43 -31 -65 -52 -65 -7 0 -20 -5 -28 -10 -10
-7 23 -10 103 -10 101 0 117 2 117 16 0 10 -6 14 -15 10 -13 -5 -13 -1 -1 28
8 19 14 70 15 115 l1 81 -53 0 c-43 0 -53 -3 -54 -17z"/>
<path d="M7991 5643 c-7 -8 -11 -16 -8 -19 2 -2 10 2 17 11 17 20 9 27 -9 8z"/>
<path d="M8041 5621 c-7 -5 -12 -14 -10 -20 2 -6 10 -2 17 9 14 22 13 23 -7
11z"/>
<path d="M4352 5600 c0 -14 2 -19 5 -12 2 6 2 18 0 25 -3 6 -5 1 -5 -13z"/>
<path d="M7996 5593 c-6 -14 -5 -15 5 -6 7 7 10 15 7 18 -3 3 -9 -2 -12 -12z"/>
<path d="M8015 5560 c-3 -5 -1 -10 4 -10 6 0 11 5 11 10 0 6 -2 10 -4 10 -3 0
-8 -4 -11 -10z"/>
<path d="M4344 5546 c-8 -22 -1 -59 14 -64 8 -2 12 9 12 37 0 40 -15 55 -26
27z"/>
<path d="M5160 5548 c0 -4 4 -8 9 -8 6 0 12 4 15 8 3 5 -1 9 -9 9 -8 0 -15 -4
-15 -9z"/>
<path d="M2762 5520 c0 -19 2 -27 5 -17 2 9 2 25 0 35 -3 9 -5 1 -5 -18z"/>
<path d="M2467 5470 c-60 -11 -55 -20 11 -20 34 0 62 4 62 9 0 13 -31 18 -73
11z"/>
<path d="M3752 5410 c0 -14 2 -19 5 -12 2 6 2 18 0 25 -3 6 -5 1 -5 -13z"/>
<path d="M5668 5423 c7 -3 16 -2 19 1 4 3 -2 6 -13 5 -11 0 -14 -3 -6 -6z"/>
<path d="M7678 5423 c12 -2 30 -2 40 0 9 3 -1 5 -23 4 -22 0 -30 -2 -17 -4z"/>
<path d="M7803 5423 c15 -2 39 -2 55 0 15 2 2 4 -28 4 -30 0 -43 -2 -27 -4z"/>
<path d="M0 1271 l0 -1271 5120 0 5120 0 0 1271 0 1271 -342 -6 c-503 -10
-9588 -12 -9755 -2 l-143 8 0 -1271z m5140 789 c0 -5 -9 -10 -20 -10 -11 0
-30 -10 -42 -22 -21 -21 -23 -21 -26 -5 -2 10 2 24 8 32 14 17 80 21 80 5z
m2544 -25 c-24 -32 -44 -38 -44 -14 0 15 39 49 56 49 11 0 9 -8 -12 -35z
m-7199 18 c-10 -3 -30 -12 -42 -20 -26 -17 -39 -12 -30 12 5 10 19 15 49 14
24 -1 34 -4 23 -6z m2006 0 c-23 -3 -35 -11 -38 -24 -7 -25 -27 -19 -31 9 -3
20 0 22 50 20 38 -1 43 -2 19 -5z m7363 -12 c-18 -11 -34 -25 -37 -33 -3 -9
-7 -8 -12 5 -10 25 12 47 49 47 l31 0 -31 -19z m-6124 -186 l0 -25 -442 2
-443 3 438 2 c429 3 437 4 437 23 0 11 2 20 5 20 3 0 5 -11 5 -25z m5150 5 c0
-11 -4 -20 -9 -20 -5 0 -7 9 -4 20 3 11 7 20 9 20 2 0 4 -9 4 -20z m-2633 -22
c-3 -7 -5 -2 -5 12 0 14 2 19 5 13 2 -7 2 -19 0 -25z m-5289 -5 c-10 -2 -26
-2 -35 0 -10 3 -2 5 17 5 19 0 27 -2 18 -5z m1175 0 c-7 -2 -19 -2 -25 0 -7 3
-2 5 12 5 14 0 19 -2 13 -5z m2694 0 c-137 -2 -357 -2 -490 0 -133 1 -21 2
248 2 270 0 378 -1 242 -2z m466 0 c-40 -2 -106 -2 -145 0 -40 1 -8 3 72 3 80
0 112 -2 73 -3z m144 1 c-3 -3 -12 -4 -19 -1 -8 3 -5 6 6 6 11 1 17 -2 13 -5z
m3406 -1 c-7 -2 -19 -2 -25 0 -7 3 -2 5 12 5 14 0 19 -2 13 -5z m-7165 -10
c-27 -2 -69 -2 -95 0 -27 2 -5 3 47 3 52 0 74 -1 48 -3z m-960 -120 c-21 -2
-57 -2 -80 0 -24 2 -7 4 37 4 44 0 63 -2 43 -4z m735 0 c-18 -2 -48 -2 -65 0
-18 2 -4 4 32 4 36 0 50 -2 33 -4z m440 0 c-40 -2 -106 -2 -145 0 -40 1 -8 3
72 3 80 0 112 -2 73 -3z m1470 0 c-123 -2 -323 -2 -445 0 -123 1 -23 2 222 2
245 0 345 -1 223 -2z m660 0 c-13 -2 -35 -2 -50 0 -16 2 -5 4 22 4 28 0 40 -2
28 -4z m590 0 c-68 -2 -178 -2 -245 0 -68 1 -13 3 122 3 135 0 190 -2 123 -3z
m2005 0 c-38 -2 -98 -2 -135 0 -38 2 -7 3 67 3 74 0 105 -1 68 -3z m330 0
c-15 -2 -42 -2 -60 0 -18 2 -6 4 27 4 33 0 48 -2 33 -4z m810 -143 c3 -7 0
-10 -5 -7 -18 11 -52 -23 -55 -56 l-4 -32 -14 28 c-16 33 -7 55 31 74 27 14
41 13 47 -7z m-2508 5 c0 -3 -9 -14 -20 -25 -11 -11 -20 -32 -20 -46 0 -14 -4
-23 -10 -19 -14 9 -13 51 2 75 11 17 48 29 48 15z m-2814 -27 c-9 -12 -16 -38
-16 -58 0 -26 -3 -31 -10 -20 -21 32 -2 100 28 100 10 0 10 -5 -2 -22z m2601
10 c-9 -7 -23 -31 -31 -53 l-15 -40 0 37 c-1 39 19 68 47 68 14 0 14 -1 -1
-12z m2533 5 c-38 -12 -63 -29 -75 -53 -14 -24 -14 -25 -15 -2 0 33 34 62 73
61 17 0 25 -3 17 -6z m1287 -135 c-2 -24 -4 -7 -4 37 0 44 2 63 4 43 2 -21 2
-57 0 -80z m-2640 -70 c-2 -29 -3 -8 -3 47 0 55 1 79 3 53 2 -26 2 -71 0 -100z
m-2490 -150 c-2 -35 -3 -7 -3 62 0 69 1 97 3 63 2 -35 2 -91 0 -125z m2500
-60 c-2 -29 -3 -8 -3 47 0 55 1 79 3 53 2 -26 2 -71 0 -100z m1250 50 c-2 -13
-4 -3 -4 22 0 25 2 35 4 23 2 -13 2 -33 0 -45z m-3740 -165 c-3 -10 -5 -4 -5
12 0 17 2 24 5 18 2 -7 2 -21 0 -30z m2500 -246 c-1 -45 -3 -5 -3 88 0 94 2
130 3 82 2 -48 2 -125 0 -170z m2620 46 c-2 -38 -3 -7 -3 67 0 74 1 105 3 68
2 -38 2 -98 0 -135z m-5110 20 c-3 -10 -5 -4 -5 12 0 17 2 24 5 18 2 -7 2 -21
0 -30z"/>
</g>
</svg>
